<svg width="720" height="603" viewBox="0 0 720 603" fill="none" xmlns="http://www.w3.org/2000/svg">
<path d="M80.1271 138.115H638.597" stroke="#DED8D5" stroke-width="2.203" stroke-miterlimit="10"/>
<path d="M631.305 447.361H87.4186C83.3925 447.361 80.1269 444.092 80.1269 440.062V108.772C80.1269 104.742 83.3925 101.473 87.4186 101.473H631.305C635.331 101.473 638.597 104.742 638.597 108.772V440.062C638.597 444.092 635.331 447.361 631.305 447.361Z" stroke="#DED8D5" stroke-width="2.203" stroke-miterlimit="10"/>
<path d="M116.931 120.169C116.931 122.99 114.65 125.285 111.82 125.285C109.002 125.285 106.709 122.99 106.709 120.169C106.709 117.348 108.991 115.052 111.82 115.052C114.65 115.052 116.931 117.348 116.931 120.169Z" fill="#FFB1A5"/>
<path d="M136.783 120.168C136.783 122.99 134.49 125.285 131.672 125.285C128.854 125.285 126.561 122.99 126.561 120.168C126.561 117.347 128.854 115.052 131.672 115.052C134.501 115.052 136.783 117.347 136.783 120.168Z" fill="#EAD254"/>
<path d="M156.644 120.168C156.644 122.99 154.351 125.285 151.533 125.285C148.715 125.285 146.422 122.99 146.422 120.168C146.422 117.347 148.703 115.052 151.533 115.052C154.362 115.052 156.644 117.347 156.644 120.168Z" fill="#00857B"/>
<path d="M711.145 261.553H579.896C576.194 261.553 573.197 258.553 573.197 254.847V133.334C573.197 129.629 576.194 126.628 579.896 126.628H711.145C714.847 126.628 717.844 129.629 717.844 133.334V254.847C717.844 258.553 714.847 261.553 711.145 261.553Z" fill="#EDEDED"/>
<path d="M711.145 261.553H579.896C576.194 261.553 573.197 258.553 573.197 254.847V133.334C573.197 129.629 576.194 126.628 579.896 126.628H711.145C714.847 126.628 717.844 129.629 717.844 133.334V254.847C717.844 258.553 714.847 261.553 711.145 261.553Z" stroke="#DED8D5" stroke-width="2.203" stroke-miterlimit="10"/>
<path d="M611.622 226.456H679.841C683.565 226.456 686.573 223.433 686.573 219.716V163.751C686.573 160.023 683.554 157.012 679.841 157.012H611.622C607.897 157.012 604.889 160.034 604.889 163.751V219.716C604.889 223.433 607.909 226.456 611.622 226.456Z" fill="#E0B7E5"/>
<path d="M664.364 203.282H632.435H626.676V177.969H664.364V184.295V203.282Z" stroke="white" stroke-width="1.84341" stroke-miterlimit="10" stroke-linecap="round" stroke-linejoin="round"/>
<path d="M626.676 177.969L645.52 192.837L664.364 177.969" stroke="white" stroke-width="1.84341" stroke-miterlimit="10" stroke-linecap="round" stroke-linejoin="round"/>
<path d="M133.551 363.307H8.38574C4.85176 363.307 1.99997 360.441 1.99997 356.915V247.672C1.99997 244.134 4.86294 241.279 8.38574 241.279H133.563C137.097 241.279 139.948 244.145 139.948 247.672V356.915C139.948 360.441 137.085 363.307 133.551 363.307Z" fill="#EDEDED"/>
<path d="M133.551 363.307H8.38574C4.85176 363.307 1.99997 360.441 1.99997 356.915V247.672C1.99997 244.134 4.86294 241.279 8.38574 241.279H133.563C137.097 241.279 139.948 244.145 139.948 247.672V356.915C139.948 360.441 137.085 363.307 133.551 363.307Z" stroke="#DED8D5" stroke-width="2.203" stroke-miterlimit="10"/>
<path d="M103.099 339.797H38.1895C34.0852 339.797 30.7637 336.472 30.7637 332.364V269.603C30.7637 265.495 34.0852 262.17 38.1895 262.17H103.11C107.214 262.17 110.536 265.495 110.536 269.603V332.364C110.524 336.472 107.203 339.797 103.099 339.797Z" fill="#FBB881"/>
<path d="M55.1875 285.747C46.4309 294.513 46.4309 308.91 55.1875 317.676C63.9442 326.442 78.3262 326.442 87.0828 317.676C95.8395 308.91 95.8395 294.513 87.0828 285.747C78.315 276.981 63.9442 276.981 55.1875 285.747ZM87.0269 288.994H79.8359C79.1202 286.732 78.192 284.471 77.0401 282.209C81.0214 283.418 84.4883 285.825 87.0269 288.994ZM62.8482 300.39C62.8482 297.468 63.1949 294.558 63.9218 291.636H78.3485C79.0643 294.558 79.411 297.468 79.4221 300.39H62.8482ZM79.3215 303.032C79.1202 305.954 78.5946 308.865 77.767 311.787H64.481C63.6534 308.865 63.1278 305.954 62.9265 303.032H79.3215ZM71.1352 281.336C72.22 281.336 73.2824 281.426 74.3225 281.582C75.7092 284.057 76.7828 286.519 77.5881 288.994H64.6711C65.4763 286.519 66.5611 284.057 67.9367 281.582C68.9768 281.426 70.0504 281.336 71.1352 281.336ZM65.2191 282.209C64.0784 284.471 63.1502 286.732 62.4232 288.994H55.2323C57.7709 285.825 61.2378 283.418 65.2191 282.209ZM53.4429 291.636H61.674C60.947 294.558 60.578 297.468 60.5221 300.39H50.826C51.0273 297.222 51.9555 294.244 53.4429 291.636ZM53.4429 311.776C51.9555 309.167 51.0273 306.19 50.826 303.021H60.5556C60.701 305.943 61.1595 308.854 61.9312 311.776H53.4429ZM55.2323 314.418H62.714C63.4633 316.702 64.3915 318.997 65.4987 321.281C61.3944 320.105 57.8268 317.665 55.2323 314.418ZM71.1352 322.076C70.2293 322.076 69.3458 322.02 68.4735 321.908C67.2321 319.411 66.1697 316.915 65.3198 314.429H76.9618C76.1118 316.926 75.0494 319.422 73.808 321.908C72.9245 322.02 72.0299 322.076 71.1352 322.076ZM76.7717 321.281C77.8788 318.997 78.8071 316.702 79.5563 314.418H87.0381C84.4324 317.665 80.8648 320.105 76.7717 321.281ZM88.8163 311.776H80.328C81.0997 308.854 81.5582 305.943 81.7036 303.021H91.4332C91.2319 306.201 90.3037 309.167 88.8163 311.776ZM91.4332 300.39H81.7371C81.6812 297.468 81.301 294.558 80.5852 291.636H88.8163C90.3037 294.244 91.2319 297.222 91.4332 300.39Z" fill="white"/>
<path d="M126.091 69.5561H12.6908C10.3534 69.5561 8.45221 67.6529 8.45221 65.3131C8.45221 62.9733 10.3534 61.0701 12.6908 61.0701H126.091C128.429 61.0701 130.33 62.9733 130.33 65.3131C130.341 67.6529 128.44 69.5561 126.091 69.5561Z" fill="#C98BD2"/>
<path d="M715.761 346.84H660.716C658.379 346.84 656.478 344.937 656.478 342.597C656.478 340.257 658.379 338.354 660.716 338.354H715.761C718.099 338.354 720 340.257 720 342.597C720.011 344.937 718.11 346.84 715.761 346.84Z" fill="#A6E7E2"/>
<path d="M677.212 395.964H670.491C668.724 395.964 667.293 394.531 667.293 392.762V386.437C667.293 384.668 668.724 383.235 670.491 383.235H677.212C678.979 383.235 680.411 384.668 680.411 386.437V392.762C680.422 394.531 678.979 395.964 677.212 395.964Z" fill="#E0B7E5"/>
<path d="M39.71 425.385H32.9887C31.2217 425.385 29.7902 423.952 29.7902 422.183V415.858C29.7902 414.089 31.2217 412.656 32.9887 412.656H39.71C41.477 412.656 42.9084 414.089 42.9084 415.858V422.183C42.9084 423.952 41.477 425.385 39.71 425.385Z" fill="#FBB881"/>
<path d="M554.454 65.1676H442.529C440.673 65.1676 439.163 63.6562 439.163 61.7978V34.4367C439.163 32.5783 440.673 31.0669 442.529 31.0669H554.454C556.31 31.0669 557.82 32.5783 557.82 34.4367V61.7978C557.82 63.6562 556.321 65.1676 554.454 65.1676Z" fill="#FBB881"/>
<path d="M455.322 43.2129H534.926" stroke="white" stroke-width="1.32137" stroke-miterlimit="10"/>
<path d="M455.322 51.3962H487.743" stroke="white" stroke-width="1.32137" stroke-miterlimit="10"/>
<path d="M452.081 61.3047V74.5934L468.778 61.3047H452.081Z" fill="#FFB1A5"/>
<path d="M279.461 67.1938H225.277C220.009 67.1938 215.748 62.9284 215.748 57.6554V7.23212C215.748 3.23542 218.98 0 222.973 0H279.461C283.453 0 286.685 3.23542 286.685 7.23212V59.9617C286.685 63.9584 283.453 67.1938 279.461 67.1938Z" fill="#A6E7E2"/>
<path d="M267.773 38.5675L263.736 34.5261C263.02 33.7312 262.08 33.2946 261.141 33.2946C260.202 33.2946 259.262 33.7312 258.546 34.4477L256.243 36.7539C256.097 36.6867 255.952 36.6084 255.806 36.5412C255.516 36.3957 255.303 36.3285 255.079 36.1829C252.921 34.8059 250.964 33.0035 249.096 30.6973C248.235 29.6113 247.587 28.6038 247.217 27.7417C247.799 27.238 248.302 26.6558 248.806 26.152C249.018 25.9393 249.242 25.7154 249.454 25.5027C250.248 24.7078 250.684 23.7674 250.684 22.827C250.684 21.8866 250.248 20.9462 249.454 20.1514L247.43 18.125C247.218 17.9123 246.994 17.6884 246.781 17.4085C246.345 16.9719 245.842 16.4681 245.406 16.0315C244.69 15.315 243.751 14.8784 242.811 14.8784C241.872 14.8784 241.011 15.2367 240.217 16.0315L237.689 18.5617C236.75 19.502 236.179 20.7223 236.034 22.0993C235.889 24.26 236.47 26.2864 236.973 27.585C238.125 30.91 239.926 33.8655 242.599 37.045C245.842 40.8738 249.667 43.9077 254.14 46.0683C255.795 46.8632 258.11 47.8036 260.627 48.0163C260.772 48.0163 260.917 48.0163 261.13 48.0163C262.863 48.0163 264.306 47.367 265.458 46.1355C265.458 46.1355 265.458 46.1355 265.525 46.0683C265.883 45.6317 266.319 45.2063 266.822 44.7697C267.113 44.4786 267.471 44.1204 267.762 43.8293C269.283 42.2508 269.283 40.0789 267.773 38.5675ZM266.106 42.3179C265.816 42.609 265.525 42.9001 265.245 43.18C264.742 43.6166 264.306 44.1204 263.803 44.6242C263.076 45.3518 262.293 45.7101 261.208 45.7101C261.063 45.7101 260.996 45.7101 260.85 45.7101C258.692 45.5646 256.668 44.7025 255.225 43.9748C251.109 41.9485 247.508 39.1385 244.478 35.5224C242.028 32.5669 240.362 29.7457 239.21 26.7901C238.483 25.0549 238.204 23.6891 238.349 22.3121C238.416 21.5172 238.707 20.8007 239.356 20.2185L241.805 17.7668C242.017 17.5541 242.386 17.263 242.811 17.263C243.247 17.263 243.527 17.4757 243.818 17.7668C244.254 18.2034 244.679 18.6288 245.115 19.0654C245.328 19.2781 245.551 19.5692 245.831 19.7931L247.855 21.8195C248.067 22.0322 248.358 22.4688 248.358 22.827C248.358 23.2636 248.067 23.6219 247.855 23.8346C247.642 24.0473 247.419 24.2712 247.206 24.4839C246.558 25.1333 245.976 25.7154 245.406 26.2864C245.406 26.2864 245.406 26.2864 245.339 26.3535C244.623 27.07 244.757 27.7305 244.903 28.156V28.2231C245.406 29.5218 246.2 30.6749 247.285 32.1191C249.309 34.6492 251.467 36.5972 253.849 38.1085C254.14 38.3212 254.498 38.4668 254.789 38.6123C255.079 38.7579 255.292 38.825 255.504 38.9706L255.572 39.0377C256.287 39.396 257.014 39.2504 257.596 38.6795L260.123 36.1494C260.336 35.9367 260.705 35.6456 261.13 35.6456C261.488 35.6456 261.846 35.9367 262.069 36.1494L266.106 40.1908C266.755 40.8738 266.755 41.6014 266.106 42.3179Z" fill="white"/>
<path d="M536.424 279.602H534.945V297.246H536.424V279.602Z" fill="#407BFF"/>
<path d="M536.424 229.067H534.945V267.256H536.424V229.067Z" fill="#407BFF"/>
<path opacity="0.5" d="M514.88 192H160.415C154.577 192 149.845 196.871 149.845 202.879V399.121C149.845 405.129 154.577 410 160.415 410H514.88C520.718 410 525.45 405.129 525.45 399.121V202.879C525.45 196.871 520.718 192 514.88 192Z" fill="#E0E0E0"/>
<path d="M520.35 192.816H165.811C159.972 192.816 155.239 197.555 155.239 203.4V394.318C155.239 400.163 159.972 404.902 165.811 404.902H520.35C526.189 404.902 530.923 400.163 530.923 394.318V203.4C530.923 197.555 526.189 192.816 520.35 192.816Z" fill="white"/>
<path d="M520.366 405.583H165.812C162.813 405.579 159.938 404.385 157.818 402.262C155.697 400.139 154.504 397.261 154.5 394.259V203.311C154.504 200.309 155.697 197.431 157.818 195.309C159.938 193.186 162.813 191.992 165.812 191.988H520.366C523.365 191.992 526.24 193.186 528.36 195.309C530.481 197.431 531.674 200.309 531.678 203.311V394.259C531.674 397.261 530.481 400.139 528.36 402.262C526.24 404.385 523.365 405.579 520.366 405.583ZM165.812 193.557C163.205 193.561 160.706 194.599 158.863 196.444C157.02 198.289 155.983 200.791 155.979 203.4V394.348C155.983 396.958 157.02 399.459 158.863 401.304C160.706 403.149 163.205 404.188 165.812 404.192H520.366C522.972 404.188 525.471 403.149 527.315 401.304C529.158 399.459 530.195 396.958 530.199 394.348V203.4C530.195 200.791 529.158 198.289 527.315 196.444C525.471 194.599 522.972 193.561 520.366 193.557H165.812Z" fill="#407BFF"/>
<path d="M320.702 284.93H184.058C182.598 284.927 181.199 284.343 180.168 283.308C179.137 282.273 178.558 280.871 178.558 279.409V260.522C178.558 259.06 179.137 257.658 180.168 256.623C181.199 255.588 182.598 255.004 184.058 255H320.702C322.162 255.004 323.561 255.588 324.592 256.623C325.623 257.658 326.202 259.06 326.202 260.522V279.365C326.208 280.092 326.07 280.814 325.797 281.488C325.523 282.162 325.119 282.775 324.608 283.292C324.097 283.81 323.488 284.221 322.818 284.502C322.148 284.783 321.428 284.929 320.702 284.93ZM184.058 256.525C182.99 256.529 181.967 256.956 181.214 257.714C180.46 258.471 180.036 259.497 180.036 260.566V279.409C180.034 279.939 180.137 280.464 180.338 280.955C180.54 281.445 180.836 281.89 181.209 282.266C181.583 282.641 182.027 282.939 182.516 283.142C183.005 283.346 183.529 283.45 184.058 283.45H320.702C321.231 283.45 321.755 283.346 322.244 283.142C322.733 282.939 323.177 282.641 323.551 282.266C323.925 281.89 324.221 281.445 324.422 280.955C324.623 280.464 324.726 279.939 324.724 279.409V260.522C324.724 259.453 324.3 258.427 323.547 257.669C322.793 256.912 321.77 256.485 320.702 256.481L184.058 256.525Z" fill="#E0E0E0"/>
<path d="M392.683 324.881H184.058C182.601 324.878 181.204 324.296 180.173 323.264C179.142 322.233 178.562 320.834 178.558 319.375V300.488C178.558 299.026 179.137 297.624 180.168 296.589C181.199 295.554 182.598 294.97 184.058 294.966H392.683C394.143 294.97 395.542 295.554 396.574 296.589C397.605 297.624 398.184 299.026 398.184 300.488V319.345C398.186 320.071 398.045 320.789 397.77 321.459C397.494 322.13 397.09 322.74 396.579 323.254C396.068 323.768 395.461 324.176 394.793 324.456C394.124 324.735 393.407 324.88 392.683 324.881ZM184.058 296.476C182.99 296.48 181.967 296.908 181.214 297.665C180.46 298.422 180.036 299.448 180.036 300.517V319.375C180.036 320.443 180.46 321.467 181.214 322.222C181.969 322.977 182.992 323.401 184.058 323.401H392.683C393.75 323.401 394.773 322.977 395.527 322.222C396.281 321.467 396.705 320.443 396.705 319.375V300.488C396.705 299.418 396.282 298.393 395.528 297.635C394.774 296.878 393.751 296.45 392.683 296.447L184.058 296.476Z" fill="#E0E0E0"/>
<path d="M185.64 315.882C185.444 315.882 185.256 315.804 185.117 315.665C184.979 315.526 184.901 315.338 184.901 315.142V304.78C184.901 304.584 184.979 304.396 185.117 304.257C185.256 304.118 185.444 304.04 185.64 304.04C185.836 304.04 186.024 304.118 186.163 304.257C186.301 304.396 186.379 304.584 186.379 304.78V315.142C186.379 315.338 186.301 315.526 186.163 315.665C186.024 315.804 185.836 315.882 185.64 315.882Z" fill="#E0E0E0"/>
<path d="M484.493 284.93H347.849C346.389 284.927 344.99 284.343 343.959 283.308C342.928 282.273 342.349 280.871 342.349 279.409V260.522C342.349 259.06 342.928 257.658 343.959 256.623C344.99 255.588 346.389 255.004 347.849 255H484.493C485.953 255.004 487.352 255.588 488.383 256.623C489.414 257.658 489.993 259.06 489.993 260.522V279.365C489.999 280.092 489.861 280.814 489.588 281.488C489.314 282.162 488.91 282.775 488.399 283.292C487.888 283.81 487.279 284.221 486.609 284.502C485.939 284.783 485.219 284.929 484.493 284.93ZM347.849 256.525C346.781 256.529 345.758 256.956 345.004 257.714C344.251 258.471 343.827 259.497 343.827 260.566V279.409C343.825 279.939 343.928 280.464 344.129 280.955C344.33 281.445 344.626 281.89 345 282.266C345.374 282.641 345.818 282.939 346.307 283.142C346.796 283.346 347.32 283.45 347.849 283.45H484.493C485.022 283.45 485.546 283.346 486.035 283.142C486.524 282.939 486.968 282.641 487.342 282.266C487.716 281.89 488.011 281.445 488.213 280.955C488.414 280.464 488.517 279.939 488.515 279.409V260.522C488.515 259.453 488.091 258.427 487.337 257.669C486.584 256.912 485.561 256.485 484.493 256.481L347.849 256.525Z" fill="#E0E0E0"/>
<path opacity="0.2" d="M272.956 229.067H185.375C183.764 229.063 182.22 228.421 181.082 227.281C179.943 226.141 179.301 224.596 179.297 222.984C179.301 221.371 179.943 219.826 181.082 218.686C182.22 217.546 183.764 216.904 185.375 216.9H272.956C274.566 216.904 276.11 217.546 277.249 218.686C278.388 219.826 279.029 221.371 279.033 222.984C279.029 224.596 278.388 226.141 277.249 227.281C276.11 228.421 274.566 229.063 272.956 229.067Z" fill="#333333"/>
<path opacity="0.2" d="M297.057 346.374H202.157C201.515 346.371 200.9 346.114 200.446 345.659C199.992 345.205 199.736 344.589 199.732 343.947C199.736 343.304 199.992 342.689 200.446 342.235C200.9 341.78 201.515 341.523 202.157 341.519H297.057C297.698 341.523 298.311 341.781 298.763 342.236C299.214 342.69 299.468 343.306 299.468 343.947C299.468 344.588 299.214 345.203 298.763 345.658C298.311 346.113 297.698 346.37 297.057 346.374Z" fill="#333333"/>
<path d="M184.192 348.891C186.895 348.891 189.086 346.697 189.086 343.991C189.086 341.285 186.895 339.092 184.192 339.092C181.489 339.092 179.297 341.285 179.297 343.991C179.297 346.697 181.489 348.891 184.192 348.891Z" fill="#333333"/>
<path d="M349.432 275.931C349.236 275.931 349.048 275.853 348.909 275.714C348.77 275.575 348.693 275.387 348.693 275.19V264.829C348.693 264.633 348.77 264.444 348.909 264.306C349.048 264.167 349.236 264.089 349.432 264.089C349.628 264.089 349.816 264.167 349.955 264.306C350.093 264.444 350.171 264.633 350.171 264.829V275.19C350.171 275.387 350.093 275.575 349.955 275.714C349.816 275.853 349.628 275.931 349.432 275.931Z" fill="#E0E0E0"/>
<path d="M185.64 275.931C185.444 275.931 185.256 275.853 185.117 275.714C184.979 275.575 184.901 275.387 184.901 275.19V264.829C184.901 264.633 184.979 264.444 185.117 264.306C185.256 264.167 185.444 264.089 185.64 264.089C185.836 264.089 186.024 264.167 186.163 264.306C186.301 264.444 186.379 264.633 186.379 264.829V275.19C186.379 275.387 186.301 275.575 186.163 275.714C186.024 275.853 185.836 275.931 185.64 275.931Z" fill="#E0E0E0"/>
<g opacity="0.6">
<path opacity="0.6" d="M191.526 274.406V265.303H197.662V266.443H192.738V269.255H196.997V270.335H192.738V274.465L191.526 274.406Z" fill="#263238"/>
<path opacity="0.6" d="M199.082 266.591V265.303H200.191V266.591H199.082ZM199.082 274.406V267.819H200.191V274.406H199.082Z" fill="#263238"/>
<path opacity="0.6" d="M201.876 274.406V267.819H202.882V268.811C203.057 268.462 203.298 268.151 203.592 267.893C203.805 267.747 204.058 267.67 204.316 267.671C204.721 267.681 205.116 267.804 205.455 268.026L205.07 269.062C204.826 268.909 204.545 268.827 204.257 268.825C204.019 268.823 203.786 268.896 203.592 269.033C203.394 269.193 203.249 269.41 203.177 269.654C203.056 270.078 202.996 270.516 203 270.957V274.406H201.876Z" fill="#263238"/>
<path opacity="0.6" d="M205.661 272.437L206.756 272.26C206.798 272.652 206.982 273.016 207.273 273.281C207.617 273.539 208.042 273.665 208.471 273.636C208.875 273.666 209.276 273.556 209.609 273.326C209.72 273.236 209.81 273.123 209.874 272.995C209.937 272.868 209.973 272.728 209.979 272.586C209.981 272.467 209.952 272.35 209.895 272.246C209.838 272.142 209.755 272.055 209.654 271.993C209.288 271.815 208.9 271.686 208.5 271.609C207.921 271.476 207.352 271.298 206.8 271.076C206.507 270.943 206.26 270.727 206.09 270.454C205.925 270.187 205.838 269.88 205.839 269.566C205.834 269.276 205.901 268.99 206.032 268.732C206.164 268.474 206.356 268.252 206.593 268.086C206.809 267.937 207.049 267.827 207.303 267.76C207.615 267.669 207.939 267.624 208.264 267.627C208.727 267.617 209.188 267.692 209.624 267.849C209.968 267.961 210.271 268.172 210.497 268.456C210.698 268.764 210.83 269.112 210.881 269.477L209.787 269.625C209.748 269.315 209.595 269.03 209.358 268.826C209.065 268.62 208.71 268.52 208.353 268.545C207.965 268.507 207.576 268.595 207.244 268.796C207.147 268.863 207.067 268.951 207.011 269.054C206.955 269.157 206.923 269.271 206.918 269.388C206.914 269.528 206.962 269.665 207.051 269.773C207.166 269.911 207.314 270.018 207.48 270.084L208.471 270.365C209.023 270.506 209.566 270.679 210.097 270.883C210.394 270.999 210.648 271.202 210.826 271.467C211.003 271.732 211.094 272.045 211.088 272.363C211.09 272.739 210.976 273.106 210.763 273.414C210.533 273.753 210.209 274.015 209.831 274.169C209.394 274.365 208.92 274.461 208.441 274.451C207.749 274.498 207.061 274.311 206.489 273.918C206.045 273.54 205.751 273.015 205.661 272.437Z" fill="#263238"/>
<path opacity="0.6" d="M214.904 273.4L215.052 274.392C214.775 274.452 214.493 274.486 214.209 274.495C213.888 274.507 213.568 274.441 213.278 274.303C213.069 274.184 212.904 274.003 212.804 273.785C212.688 273.356 212.643 272.911 212.671 272.467V268.678H211.843V267.819H212.671V266.191L213.78 265.51V267.819H214.904V268.678H213.78V272.541C213.745 272.742 213.745 272.947 213.78 273.148C213.818 273.241 213.886 273.319 213.973 273.37C214.094 273.399 214.221 273.399 214.342 273.37L214.904 273.4Z" fill="#263238"/>
<path opacity="0.6" d="M219.517 274.407V267.82H220.522V268.752C220.743 268.403 221.052 268.119 221.418 267.929C221.785 267.739 222.195 267.65 222.607 267.672C222.983 267.662 223.356 267.732 223.702 267.879C223.999 267.995 224.259 268.189 224.456 268.441C224.628 268.69 224.744 268.973 224.796 269.27C224.828 269.63 224.828 269.991 224.796 270.351V274.407H223.687V270.395C223.702 270.05 223.657 269.704 223.554 269.374C223.466 269.149 223.304 268.962 223.095 268.841C222.858 268.7 222.587 268.628 222.312 268.634C221.859 268.623 221.419 268.787 221.084 269.093C220.884 269.328 220.735 269.601 220.646 269.897C220.557 270.192 220.53 270.503 220.567 270.81V274.407H219.517Z" fill="#263238"/>
<path opacity="0.6" d="M230.8 273.592C230.445 273.897 230.046 274.147 229.617 274.332C229.22 274.482 228.799 274.558 228.374 274.554C227.775 274.594 227.183 274.403 226.718 274.021C226.526 273.852 226.373 273.642 226.271 273.406C226.169 273.171 226.12 272.916 226.127 272.66C226.125 272.354 226.201 272.053 226.349 271.786C226.488 271.527 226.685 271.304 226.925 271.135C227.168 270.969 227.439 270.849 227.724 270.78C228.051 270.702 228.381 270.643 228.715 270.602C229.391 270.541 230.06 270.412 230.711 270.217V269.936C230.73 269.763 230.713 269.587 230.659 269.421C230.605 269.256 230.517 269.103 230.4 268.974C230.038 268.693 229.585 268.556 229.129 268.589C228.724 268.556 228.32 268.655 227.975 268.87C227.678 269.118 227.478 269.465 227.413 269.847L226.319 269.699C226.4 269.289 226.566 268.901 226.807 268.559C227.09 268.26 227.447 268.04 227.842 267.923C228.32 267.769 228.819 267.694 229.321 267.701C229.787 267.684 230.252 267.749 230.696 267.893C230.992 267.991 231.257 268.165 231.465 268.397C231.642 268.614 231.759 268.874 231.805 269.151C231.838 269.496 231.838 269.843 231.805 270.188V271.668C231.765 272.323 231.765 272.981 231.805 273.636C231.854 273.917 231.949 274.187 232.086 274.436H230.918C230.833 274.163 230.793 273.878 230.8 273.592ZM230.711 271.091C230.125 271.309 229.514 271.453 228.892 271.52C228.558 271.549 228.23 271.624 227.916 271.742C227.739 271.818 227.586 271.941 227.473 272.097C227.372 272.256 227.321 272.442 227.325 272.63C227.321 272.773 227.349 272.916 227.408 273.047C227.467 273.177 227.555 273.293 227.665 273.385C227.945 273.596 228.291 273.701 228.641 273.681C229.042 273.684 229.439 273.588 229.794 273.4C230.115 273.22 230.373 272.946 230.533 272.615C230.669 272.262 230.73 271.883 230.711 271.505V271.091Z" fill="#263238"/>
<path opacity="0.6" d="M233.623 274.406V267.819H234.629V268.737C234.827 268.413 235.108 268.147 235.442 267.967C235.797 267.763 236.201 267.66 236.61 267.671C237.029 267.656 237.444 267.759 237.808 267.967C238.122 268.168 238.357 268.471 238.473 268.826C238.684 268.473 238.983 268.18 239.341 267.978C239.698 267.775 240.103 267.67 240.514 267.671C240.784 267.654 241.054 267.693 241.308 267.785C241.562 267.876 241.795 268.019 241.992 268.204C242.383 268.67 242.574 269.271 242.525 269.877V274.406H241.416V270.247C241.434 269.923 241.399 269.598 241.312 269.285C241.236 269.087 241.095 268.92 240.913 268.811C240.712 268.69 240.482 268.629 240.248 268.633C240.034 268.627 239.822 268.665 239.624 268.744C239.425 268.823 239.245 268.941 239.094 269.092C238.924 269.296 238.796 269.532 238.717 269.787C238.638 270.041 238.611 270.308 238.636 270.573V274.406H237.512V270.128C237.54 269.735 237.447 269.343 237.246 269.004C237.141 268.873 237.004 268.77 236.849 268.706C236.694 268.641 236.526 268.616 236.359 268.633C236.05 268.633 235.747 268.72 235.486 268.885C235.215 269.052 235.011 269.309 234.91 269.61C234.766 270.055 234.701 270.52 234.717 270.987V274.406H233.623Z" fill="#263238"/>
<path opacity="0.6" d="M248.692 272.275L249.845 272.423C249.701 273.047 249.346 273.601 248.839 273.992C248.207 274.408 247.454 274.602 246.699 274.543C245.944 274.484 245.23 274.176 244.67 273.666C244.074 272.974 243.772 272.077 243.827 271.165C243.768 270.23 244.069 269.308 244.67 268.589C244.955 268.29 245.299 268.053 245.681 267.895C246.064 267.737 246.474 267.661 246.888 267.672C247.29 267.656 247.691 267.727 248.064 267.881C248.436 268.034 248.771 268.265 249.046 268.56C249.643 269.263 249.944 270.17 249.889 271.091C249.896 271.189 249.896 271.288 249.889 271.387H244.995C244.984 272 245.2 272.596 245.601 273.059C245.777 273.247 245.991 273.395 246.228 273.494C246.464 273.594 246.72 273.642 246.976 273.637C247.352 273.642 247.719 273.528 248.026 273.311C248.342 273.037 248.573 272.677 248.692 272.275ZM245.039 270.469H248.706C248.693 270.023 248.549 269.591 248.292 269.226C248.126 269.018 247.914 268.853 247.673 268.742C247.432 268.632 247.168 268.579 246.902 268.589C246.665 268.584 246.43 268.625 246.209 268.712C245.988 268.798 245.786 268.927 245.616 269.093C245.256 269.461 245.05 269.954 245.039 270.469Z" fill="#263238"/>
</g>
<g opacity="0.6">
<path opacity="0.6" d="M191.495 314.358V305.269H198.061V306.409H192.693V309.192H197.721V310.257H192.693V313.351H198.268V314.432L191.495 314.358Z" fill="#263238"/>
<path opacity="0.6" d="M199.746 314.357V307.77H200.736V308.688C200.948 308.37 201.232 308.106 201.564 307.918C201.921 307.718 202.324 307.616 202.733 307.622C203.152 307.607 203.566 307.71 203.93 307.918C204.241 308.123 204.475 308.425 204.596 308.777C204.804 308.424 205.1 308.133 205.456 307.93C205.811 307.728 206.213 307.622 206.621 307.622C206.892 307.608 207.163 307.649 207.417 307.744C207.671 307.838 207.904 307.983 208.1 308.17C208.49 308.63 208.681 309.226 208.632 309.828V314.357H207.523V310.212C207.539 309.882 207.499 309.552 207.405 309.235C207.329 309.042 207.195 308.876 207.021 308.762C206.815 308.639 206.58 308.577 206.341 308.584C205.911 308.579 205.496 308.743 205.187 309.043C204.852 309.46 204.688 309.989 204.729 310.523V314.357H203.62V310.079C203.647 309.686 203.555 309.293 203.354 308.954C203.242 308.827 203.103 308.727 202.946 308.663C202.79 308.599 202.62 308.572 202.452 308.584C202.143 308.585 201.841 308.672 201.579 308.836C201.308 309.003 201.104 309.259 201.003 309.561C200.867 310.007 200.807 310.472 200.825 310.938V314.357H199.746Z" fill="#263238"/>
<path opacity="0.6" d="M214.651 313.543C214.297 313.857 213.892 314.107 213.454 314.283C213.062 314.434 212.646 314.509 212.226 314.505C211.622 314.544 211.026 314.354 210.555 313.973C210.368 313.803 210.219 313.595 210.119 313.363C210.02 313.13 209.972 312.879 209.979 312.626C209.975 312.315 210.051 312.009 210.201 311.737C210.34 311.478 210.537 311.256 210.777 311.086C211.023 310.927 211.293 310.807 211.576 310.731C211.902 310.652 212.233 310.593 212.566 310.553C213.24 310.502 213.904 310.373 214.548 310.168C214.553 310.075 214.553 309.981 214.548 309.887C214.568 309.713 214.55 309.536 214.494 309.369C214.437 309.203 214.345 309.051 214.223 308.925C213.866 308.644 213.418 308.507 212.966 308.54C212.557 308.514 212.15 308.612 211.798 308.821C211.506 309.072 211.312 309.418 211.25 309.798L210.156 309.65C210.237 309.24 210.403 308.852 210.644 308.511C210.906 308.203 211.249 307.977 211.635 307.859C212.109 307.691 212.61 307.611 213.114 307.622C213.58 307.606 214.045 307.671 214.489 307.815C214.789 307.913 215.058 308.086 215.272 308.318C215.438 308.543 215.554 308.8 215.613 309.073C215.637 309.418 215.637 309.764 215.613 310.109V311.589C215.589 312.247 215.613 312.905 215.686 313.558C215.729 313.84 215.824 314.111 215.967 314.357H214.799C214.701 314.097 214.651 313.821 214.651 313.543ZM214.548 311.057C213.959 311.262 213.349 311.401 212.729 311.471C212.402 311.513 212.08 311.587 211.768 311.693C211.587 311.77 211.433 311.899 211.324 312.063C211.218 312.215 211.162 312.396 211.162 312.581C211.16 312.724 211.189 312.866 211.248 312.996C211.307 313.127 211.393 313.243 211.502 313.336C211.786 313.551 212.137 313.656 212.493 313.632C212.89 313.636 213.281 313.539 213.631 313.351C213.954 313.181 214.214 312.911 214.37 312.581C214.506 312.222 214.567 311.839 214.548 311.456V311.057Z" fill="#263238"/>
<path opacity="0.6" d="M217.491 306.542V305.269H218.615V306.542H217.491ZM217.491 314.357V307.77H218.615V314.357H217.491Z" fill="#263238"/>
<path opacity="0.6" d="M220.212 314.357V305.269H221.321V314.357H220.212Z" fill="#263238"/>
</g>
<g opacity="0.6">
<path opacity="0.6" d="M355.214 274.406V265.303H356.486V273.326H360.922V274.406H355.214Z" fill="#263238"/>
<path opacity="0.6" d="M366.467 273.592C366.11 273.901 365.705 274.151 365.269 274.332C364.878 274.482 364.461 274.557 364.042 274.554C363.438 274.593 362.842 274.402 362.371 274.021C362.075 273.739 361.88 273.367 361.816 272.964C361.752 272.56 361.822 272.146 362.016 271.786C362.155 271.527 362.353 271.304 362.593 271.135C362.836 270.969 363.106 270.849 363.391 270.779C363.718 270.7 364.049 270.641 364.382 270.602C365.059 270.541 365.728 270.412 366.378 270.217V269.936C366.398 269.762 366.38 269.587 366.327 269.421C366.273 269.255 366.185 269.103 366.068 268.974C365.704 268.696 365.253 268.559 364.796 268.589C364.387 268.555 363.977 268.654 363.628 268.87C363.336 269.121 363.142 269.467 363.081 269.847L361.987 269.699C362.067 269.289 362.233 268.9 362.475 268.559C362.742 268.255 363.083 268.025 363.465 267.893C363.943 267.738 364.442 267.663 364.944 267.671C365.405 267.653 365.866 267.718 366.304 267.863C366.604 267.961 366.874 268.135 367.088 268.367C367.265 268.584 367.382 268.845 367.428 269.122C367.461 269.466 367.461 269.813 367.428 270.158V271.638C367.405 272.295 367.429 272.953 367.502 273.607C367.544 273.888 367.64 274.16 367.783 274.406H366.615C366.516 274.146 366.466 273.87 366.467 273.592ZM366.378 271.09C365.791 271.305 365.181 271.449 364.56 271.519C364.225 271.547 363.897 271.622 363.584 271.742C363.407 271.818 363.254 271.941 363.14 272.097C363.035 272.255 362.979 272.44 362.977 272.63C362.977 272.772 363.008 272.914 363.066 273.044C363.125 273.174 363.211 273.29 363.318 273.385C363.601 273.599 363.953 273.704 364.308 273.681C364.71 273.682 365.106 273.586 365.462 273.399C365.779 273.216 366.036 272.943 366.201 272.615C366.337 272.261 366.397 271.883 366.378 271.505V271.09Z" fill="#263238"/>
<path opacity="0.6" d="M368.789 272.437L369.883 272.26C369.897 272.456 369.95 272.647 370.039 272.823C370.128 272.998 370.251 273.154 370.401 273.281C370.74 273.536 371.16 273.662 371.583 273.636C371.988 273.671 372.391 273.561 372.722 273.326C372.837 273.238 372.931 273.127 372.997 272.999C373.064 272.871 373.101 272.73 373.107 272.586C373.108 272.465 373.078 272.347 373.018 272.243C372.958 272.138 372.871 272.052 372.766 271.993C372.407 271.812 372.024 271.682 371.628 271.609C371.048 271.476 370.479 271.298 369.927 271.076C369.635 270.943 369.388 270.727 369.218 270.454C369.052 270.187 368.965 269.88 368.966 269.566C368.962 269.276 369.028 268.99 369.16 268.732C369.291 268.474 369.484 268.252 369.72 268.086C369.936 267.937 370.176 267.827 370.43 267.76C370.742 267.669 371.066 267.624 371.391 267.627C371.854 267.617 372.316 267.692 372.752 267.849C373.093 267.957 373.393 268.169 373.609 268.456C373.823 268.757 373.956 269.109 373.994 269.477L372.914 269.625C372.878 269.31 372.718 269.023 372.471 268.826C372.181 268.613 371.823 268.513 371.465 268.545C371.083 268.509 370.699 268.597 370.371 268.796C370.273 268.861 370.192 268.949 370.135 269.052C370.079 269.155 370.048 269.271 370.046 269.388C370.042 269.528 370.089 269.665 370.179 269.773C370.29 269.914 370.439 270.022 370.608 270.084L371.598 270.365C372.156 270.502 372.704 270.675 373.24 270.883C373.537 270.999 373.794 271.2 373.979 271.461C374.163 271.747 374.256 272.082 374.245 272.423C374.247 272.798 374.133 273.165 373.92 273.474C373.687 273.808 373.364 274.07 372.988 274.229C372.551 274.424 372.077 274.52 371.598 274.51C370.906 274.558 370.218 274.37 369.646 273.977C369.178 273.589 368.872 273.04 368.789 272.437Z" fill="#263238"/>
<path opacity="0.6" d="M378.001 273.4L378.164 274.392C377.887 274.452 377.605 274.486 377.321 274.495C377 274.507 376.68 274.441 376.39 274.303C376.181 274.184 376.016 274.003 375.916 273.785C375.8 273.356 375.755 272.911 375.783 272.467V268.678H374.955V267.819H375.783V266.191L376.892 265.51V267.819H378.001V268.678H376.892V272.541C376.857 272.742 376.857 272.947 376.892 273.148C376.93 273.237 376.991 273.314 377.07 273.37C377.197 273.397 377.327 273.397 377.454 273.37L378.001 273.4Z" fill="#263238"/>
<path opacity="0.6" d="M382.615 274.406V267.819H383.621V268.752C383.845 268.403 384.158 268.12 384.526 267.93C384.895 267.741 385.306 267.651 385.72 267.671C386.096 267.663 386.468 267.733 386.815 267.878C387.108 267.995 387.363 268.189 387.554 268.441C387.731 268.688 387.852 268.971 387.909 269.27C387.941 269.629 387.941 269.991 387.909 270.35V274.406H386.8V270.395C386.815 270.049 386.77 269.703 386.667 269.373C386.578 269.149 386.417 268.961 386.208 268.84C385.971 268.7 385.7 268.628 385.425 268.633C384.972 268.622 384.532 268.787 384.197 269.092C383.997 269.327 383.848 269.601 383.759 269.896C383.67 270.192 383.643 270.503 383.68 270.809V274.406H382.615Z" fill="#263238"/>
<path opacity="0.6" d="M393.971 273.592C393.614 273.901 393.209 274.151 392.773 274.332C392.382 274.483 391.965 274.559 391.546 274.554C390.946 274.595 390.353 274.404 389.89 274.021C389.697 273.852 389.544 273.642 389.442 273.406C389.34 273.171 389.291 272.916 389.298 272.659C389.296 272.354 389.372 272.053 389.52 271.786C389.659 271.527 389.857 271.304 390.097 271.135C390.339 270.969 390.61 270.849 390.895 270.779C391.222 270.701 391.552 270.641 391.886 270.602C392.563 270.541 393.231 270.412 393.882 270.217V269.936C393.902 269.763 393.884 269.587 393.83 269.421C393.777 269.255 393.689 269.103 393.572 268.974C393.209 268.693 392.757 268.556 392.3 268.589C391.891 268.557 391.482 268.656 391.132 268.87C390.84 269.121 390.646 269.467 390.585 269.847L389.491 269.699C389.571 269.289 389.737 268.9 389.978 268.559C390.246 268.255 390.587 268.025 390.969 267.893C391.447 267.739 391.946 267.664 392.448 267.671C392.914 267.654 393.379 267.719 393.823 267.863C394.119 267.961 394.384 268.135 394.592 268.367C394.769 268.584 394.886 268.845 394.932 269.122C394.965 269.466 394.965 269.813 394.932 270.158V271.638C394.917 272.295 394.941 272.953 395.006 273.607C395.048 273.889 395.144 274.16 395.287 274.406H394.119C394.02 274.146 393.97 273.87 393.971 273.592ZM393.882 271.09C393.295 271.305 392.685 271.449 392.063 271.52C391.73 271.549 391.401 271.623 391.087 271.742C390.911 271.818 390.757 271.941 390.644 272.097C390.544 272.256 390.492 272.441 390.496 272.63C390.493 272.772 390.521 272.912 390.577 273.043C390.633 273.173 390.716 273.289 390.821 273.385C391.105 273.599 391.457 273.705 391.812 273.681C392.214 273.682 392.61 273.586 392.965 273.399C393.283 273.216 393.54 272.943 393.705 272.615C393.841 272.261 393.901 271.883 393.882 271.505V271.09Z" fill="#263238"/>
<path opacity="0.6" d="M396.736 274.406V267.819H397.727V268.737C397.934 268.415 398.219 268.151 398.555 267.968C398.909 267.763 399.314 267.66 399.723 267.671C400.142 267.656 400.557 267.759 400.921 267.968C401.231 268.172 401.465 268.474 401.586 268.826C401.794 268.474 402.091 268.182 402.446 267.98C402.801 267.777 403.203 267.671 403.612 267.671C403.881 267.658 404.151 267.698 404.404 267.79C404.658 267.881 404.891 268.022 405.09 268.204C405.481 268.67 405.672 269.271 405.623 269.877V274.406H404.514V270.247C404.527 269.922 404.487 269.597 404.396 269.285C404.33 269.085 404.193 268.917 404.011 268.811C403.81 268.69 403.58 268.629 403.346 268.634C403.132 268.622 402.918 268.657 402.719 268.736C402.519 268.815 402.34 268.937 402.192 269.092C402.022 269.297 401.894 269.533 401.815 269.787C401.736 270.041 401.709 270.308 401.734 270.573V274.406H400.61V270.129C400.638 269.735 400.545 269.343 400.344 269.004C400.238 268.874 400.101 268.772 399.947 268.708C399.792 268.643 399.624 268.618 399.457 268.634C399.148 268.633 398.845 268.72 398.584 268.885C398.314 269.057 398.106 269.311 397.993 269.611C397.855 270.056 397.795 270.522 397.815 270.987V274.406H396.736Z" fill="#263238"/>
<path opacity="0.6" d="M411.803 272.275L412.957 272.423C412.813 273.046 412.458 273.601 411.951 273.992C411.404 274.381 410.744 274.579 410.073 274.554C409.65 274.579 409.226 274.513 408.831 274.36C408.436 274.206 408.078 273.97 407.782 273.666C407.186 272.974 406.884 272.076 406.939 271.164C406.88 270.229 407.181 269.308 407.782 268.589C408.067 268.289 408.411 268.053 408.793 267.895C409.175 267.736 409.586 267.66 410 267.671C410.402 267.657 410.802 267.73 411.174 267.883C411.547 268.036 411.882 268.266 412.158 268.559C412.754 269.263 413.056 270.169 413.001 271.09C413.001 271.164 413.001 271.268 413.001 271.386H408.092C408.092 272 408.312 272.594 408.713 273.059C408.889 273.246 409.102 273.394 409.339 273.494C409.576 273.593 409.831 273.642 410.088 273.636C410.464 273.642 410.831 273.528 411.138 273.311C411.454 273.036 411.685 272.677 411.803 272.275ZM408.151 270.469H411.818C411.805 270.023 411.661 269.59 411.404 269.225C411.237 269.02 411.024 268.855 410.783 268.745C410.542 268.635 410.279 268.581 410.014 268.589C409.777 268.581 409.541 268.622 409.32 268.709C409.099 268.795 408.897 268.926 408.728 269.092C408.368 269.461 408.162 269.953 408.151 270.469Z" fill="#263238"/>
</g>
<path d="M424.858 364.004H374.288C369.829 364.004 366.214 367.622 366.214 372.086V381.234C366.214 385.697 369.829 389.316 374.288 389.316H424.858C429.317 389.316 432.932 385.697 432.932 381.234V372.086C432.932 367.622 429.317 364.004 424.858 364.004Z" fill="#FFD65C"/>
<path d="M505.594 364.004H455.023C450.564 364.004 446.95 367.622 446.95 372.086V381.234C446.95 385.697 450.564 389.316 455.023 389.316H505.594C510.052 389.316 513.667 385.697 513.667 381.234V372.086C513.667 367.622 510.052 364.004 505.594 364.004Z" fill="#FFF5D6"/>
<path d="M583.605 228.157C575.225 226.897 573.319 234.514 564.508 234.207C565.017 235.649 565.809 236.974 566.837 238.105C567.866 239.236 569.11 240.149 570.496 240.791C570.496 240.791 563.499 245.877 565.064 253.483C570.541 247.273 577.901 253.165 585.918 252.927C602.554 252.404 608.598 244.696 602.804 238.078C608.156 231.267 593.516 227.657 593.856 222.605C592.178 223.389 592.235 226.613 592.235 226.613C588.162 226.747 584.175 225.427 580.985 222.889C580.77 226 583.605 228.157 583.605 228.157Z" fill="#333333"/>
<path d="M607.521 579.624L599.629 584.176L588.005 566.626L595.898 562.074L607.521 579.624Z" fill="#FF8B7B"/>
<path d="M598.677 583.507L607.545 578.398C607.616 578.35 607.695 578.317 607.779 578.301C607.864 578.285 607.95 578.286 608.034 578.304C608.117 578.322 608.197 578.357 608.266 578.406C608.336 578.455 608.396 578.519 608.44 578.591L612.977 585.312C613.083 585.492 613.152 585.692 613.181 585.899C613.21 586.106 613.198 586.317 613.145 586.519C613.093 586.722 613 586.912 612.874 587.079C612.748 587.246 612.59 587.386 612.41 587.491C609.291 589.228 607.715 589.898 603.814 592.146C601.41 593.531 592.746 598.162 586.35 597.674C582.631 597.39 582.54 593.985 584.15 593.61C591.374 591.941 596.42 587.798 597.633 584.767C597.838 584.246 598.204 583.805 598.677 583.507Z" fill="#282828"/>
<path d="M552.068 358.431C552.068 358.431 532.972 433.615 530.976 459.6C528.798 488.048 589.196 574.686 589.196 574.686L603.938 566.944C603.938 566.944 575.973 517.529 557.319 461.655C566.391 432.423 584.41 360.906 584.41 360.906L552.068 358.431Z" fill="#333333"/>
<path d="M604.482 566.899L588.663 575.197L584.081 569.885L602.826 561.53L604.482 566.899Z" fill="#054B70"/>
<path d="M596.68 586.481C597.377 586.055 598.027 585.557 598.619 584.994C598.638 584.959 598.648 584.92 598.648 584.88C598.648 584.841 598.638 584.802 598.619 584.767C598.606 584.729 598.581 584.695 598.549 584.671C598.517 584.647 598.478 584.633 598.438 584.631C598.086 584.631 594.968 584.37 594.219 585.3C594.135 585.406 594.079 585.531 594.057 585.664C594.035 585.798 594.048 585.934 594.094 586.061C594.137 586.265 594.234 586.453 594.376 586.605C594.518 586.758 594.699 586.868 594.9 586.924C595.528 587.008 596.164 586.85 596.68 586.481ZM597.961 585.017C596.714 586.152 595.693 586.663 595.07 586.515C594.82 586.458 594.661 586.265 594.559 585.936C594.525 585.88 594.507 585.815 594.507 585.749C594.507 585.683 594.525 585.618 594.559 585.561C595.013 585.062 596.703 584.971 597.961 585.017Z" fill="#005683"/>
<path d="M598.563 585.017L598.631 584.948C598.648 584.917 598.656 584.882 598.656 584.846C598.656 584.811 598.648 584.776 598.631 584.744C598.631 584.642 597.497 582.292 596.204 581.986C596.044 581.949 595.878 581.947 595.718 581.98C595.557 582.013 595.406 582.081 595.274 582.179C595.121 582.276 595.004 582.421 594.943 582.591C594.881 582.762 594.878 582.948 594.934 583.121C595.251 584.086 597.383 585.039 598.438 585.051C598.482 585.052 598.526 585.04 598.563 585.017ZM595.626 582.462C595.775 582.383 595.948 582.359 596.113 582.394C596.85 582.576 597.678 583.836 598.086 584.585C597.066 584.404 595.558 583.62 595.342 582.985C595.342 582.871 595.342 582.712 595.546 582.519L595.626 582.462Z" fill="#005683"/>
<path d="M565.563 293.918L557.364 308.04C556.015 310.39 554.688 312.74 553.452 315.044C552.84 316.179 552.318 317.315 551.74 318.45C551.161 319.585 550.742 320.652 550.538 321.208L550.095 317.008C550.209 317.53 550.277 318.064 550.379 318.552C550.481 319.04 550.549 319.551 550.662 319.994C550.776 320.436 550.855 320.913 550.946 321.356L551.093 322.014C551.093 322.139 551.093 322.241 551.093 322.344C551.093 322.446 551.093 322.457 551.093 322.502C551.093 322.548 551.093 322.616 550.855 322.616C551.338 322.68 551.803 322.84 552.223 323.087C552.643 323.334 553.009 323.662 553.3 324.052C553.592 324.443 553.802 324.888 553.919 325.361C554.036 325.834 554.058 326.326 553.982 326.807C553.906 327.289 553.735 327.75 553.479 328.165C553.222 328.579 552.886 328.938 552.489 329.22C552.092 329.502 551.642 329.702 551.167 329.808C550.692 329.914 550.2 329.923 549.721 329.836H548.916H548.349C548.009 329.836 547.657 329.756 547.34 329.7C546.705 329.582 546.083 329.407 545.48 329.177C544.357 328.741 543.297 328.157 542.327 327.441C541.422 326.77 540.586 326.009 539.833 325.17C539.47 324.762 539.141 324.342 538.801 323.91C538.46 323.479 538.211 323.047 537.916 322.616C537.603 322.145 537.386 321.617 537.277 321.062C537.168 320.507 537.169 319.935 537.281 319.381L537.474 318.416C537.844 316.664 538.352 314.945 538.993 313.273C539.526 311.786 540.127 310.401 540.706 309.039C541.84 306.326 543.144 303.726 544.459 301.172C545.775 298.618 547.124 296.121 548.519 293.646C549.914 291.171 551.354 288.764 552.919 286.324C553.967 284.714 555.601 283.577 557.473 283.154C559.346 282.731 561.309 283.056 562.946 284.061C564.583 285.065 565.764 286.668 566.238 288.53C566.712 290.392 566.441 292.366 565.484 294.032L565.563 293.918Z" fill="#FF8B7B"/>
<path d="M560.97 280.171C570.201 279.479 574.737 286.006 570.337 296.768C567.692 302.903 564.689 308.877 561.344 314.659C560.607 315.964 559.938 317.122 559.382 318.064L540.887 303.67C544.481 295.145 554.789 280.682 560.97 280.171Z" fill="#AAA4EC"/>
<path d="M584.83 592.509L575.769 591.816L576.03 570.713L585.09 571.406L584.83 592.509Z" fill="#FF8B7B"/>
<path d="M574.947 590.331L585.182 590.342C585.355 590.338 585.524 590.402 585.651 590.52C585.779 590.638 585.856 590.801 585.866 590.974L586.343 599.078C586.347 599.288 586.309 599.497 586.232 599.692C586.155 599.888 586.04 600.066 585.894 600.216C585.747 600.367 585.573 600.487 585.38 600.57C585.187 600.652 584.979 600.696 584.769 600.698C581.216 600.632 579.517 600.417 575.025 600.41C572.261 600.4 560.523 600.671 556.711 600.637C552.899 600.602 553.018 596.848 554.597 596.514C561.83 594.996 570.806 592.904 573.362 590.893C573.81 590.527 574.37 590.329 574.947 590.331Z" fill="#282828"/>
<path d="M569.748 359.782C569.748 359.782 568.611 373.864 567.337 391.704C566.257 406.825 565.079 424.645 564.413 438.878C564.127 444.973 563.935 450.411 563.885 454.696C563.801 461.725 564.261 472.8 565.002 485.504C566.125 504.76 567.895 527.761 569.396 546.092C570.931 564.825 572.186 578.682 572.186 578.682L588.788 579.954C588.788 579.954 587.54 487.413 590.466 459.316C593.641 428.825 600.513 362.132 600.513 362.132L569.748 359.782Z" fill="#333333"/>
<path d="M565.002 485.503C566.125 504.76 567.895 527.761 569.396 546.092M564.413 438.878C565.079 424.645 566.257 406.825 567.337 391.704" stroke="white" stroke-width="0.5"/>
<path d="M589.457 579.999L571.528 578.626L570.961 572.246L590.682 574.743L589.457 579.999Z" fill="#054B70"/>
<path d="M572.049 592.066C572.865 592.102 573.682 592.052 574.488 591.919C574.527 591.914 574.565 591.897 574.595 591.871C574.625 591.844 574.647 591.81 574.658 591.771C574.667 591.73 574.665 591.686 574.651 591.646C574.636 591.606 574.611 591.571 574.578 591.544C574.306 591.328 571.857 589.376 570.723 589.728C570.594 589.768 570.478 589.84 570.384 589.937C570.291 590.034 570.224 590.154 570.19 590.284C570.118 590.473 570.098 590.678 570.132 590.878C570.166 591.078 570.252 591.264 570.382 591.419C570.837 591.837 571.432 592.068 572.049 592.066ZM573.921 591.567C572.276 591.771 571.097 591.624 570.7 591.181C570.616 591.073 570.563 590.944 570.545 590.809C570.527 590.673 570.545 590.535 570.598 590.409C570.613 590.345 570.643 590.285 570.687 590.235C570.73 590.186 570.786 590.148 570.847 590.125C571.46 589.944 572.923 590.818 573.921 591.567Z" fill="#005683"/>
<path d="M574.431 591.919C574.464 591.93 574.499 591.93 574.533 591.919C574.565 591.904 574.593 591.883 574.615 591.855C574.636 591.827 574.651 591.795 574.657 591.76C574.657 591.646 575.054 589.058 574.204 588.105C574.098 587.978 573.964 587.879 573.812 587.816C573.66 587.752 573.495 587.727 573.331 587.741C573.149 587.729 572.968 587.78 572.82 587.886C572.671 587.991 572.563 588.145 572.514 588.32C572.242 589.296 573.467 591.294 574.328 591.896C574.36 591.913 574.395 591.921 574.431 591.919ZM573.444 588.15C573.53 588.154 573.613 588.176 573.69 588.216C573.766 588.255 573.833 588.31 573.886 588.377C574.33 589.281 574.469 590.305 574.283 591.294C573.546 590.568 572.741 589.024 572.922 588.422C572.922 588.309 573.036 588.161 573.353 588.15H573.444Z" fill="#005683"/>
<path d="M552.069 358.431L600.525 362.132C601.16 357.818 601.126 343.651 603.099 325.806C604.467 312.539 606.982 299.416 610.618 286.585C610.901 285.62 611.196 284.666 611.491 283.713C611.491 283.713 609.075 283.02 605.583 282.237C602.691 281.59 599.062 280.863 595.479 280.421C588.65 279.503 581.774 278.976 574.885 278.843C571.699 278.9 568.569 279.183 566.074 279.478C562.876 279.876 560.982 280.273 560.982 280.273C560.982 280.273 550.391 306.178 552.069 358.431Z" fill="#AAA4EC"/>
<path d="M553.783 313.66C554.772 305.388 556.017 298.659 557.193 293.466" stroke="#333333" stroke-width="0.5"/>
<path d="M554.211 321.572C555.164 320.172 556.381 318.972 557.795 318.041C558.737 317.593 559.643 317.073 560.505 316.486C560.594 316.428 560.696 316.394 560.802 316.389C560.908 316.383 561.014 316.405 561.109 316.454C561.203 316.502 561.283 316.575 561.34 316.664C561.398 316.754 561.43 316.857 561.435 316.963C561.435 317.678 561.095 318.825 559.167 320.369C558.872 322.639 555.391 324.807 555.391 324.807L554.211 321.572Z" fill="#FF8B7B"/>
<path opacity="0.3" d="M561.198 327.554L571.256 328.326L565.802 307.915L555.743 307.144L561.198 327.554Z" fill="black"/>
<path d="M560.506 327.498L570.576 328.27L565.121 307.859L555.051 307.087L560.506 327.498Z" fill="white"/>
<path d="M614.88 290.74C615.391 292.329 615.799 293.703 616.185 295.179C616.57 296.655 616.922 298.096 617.319 299.572C617.965 302.512 618.555 305.475 618.963 308.495C619.409 311.558 619.693 314.642 619.813 317.735C619.952 321.003 619.811 324.277 619.394 327.52V327.884C619.215 329.25 618.584 330.517 617.602 331.482C616.921 332.138 616.159 332.702 615.334 333.162C614.731 333.504 614.102 333.796 613.452 334.037C612.438 334.416 611.39 334.698 610.322 334.877C608.601 335.167 606.861 335.322 605.117 335.342C602.016 335.37 598.917 335.191 595.841 334.808C592.858 334.445 589.932 333.968 587.029 333.378C584.126 332.788 581.291 332.129 578.4 331.278C577.551 331.03 576.819 330.485 576.338 329.742C575.857 328.999 575.659 328.108 575.78 327.231C575.901 326.354 576.333 325.55 576.997 324.965C577.661 324.381 578.513 324.055 579.397 324.047H579.465L587.925 323.956C590.737 323.956 593.527 323.854 596.271 323.718C599.016 323.581 601.715 323.366 604.209 323.025C605.326 322.874 606.43 322.634 607.509 322.31C607.852 322.208 608.182 322.071 608.496 321.901C608.598 321.901 608.587 321.81 608.553 321.833C608.348 321.909 608.165 322.033 608.02 322.196L606.171 326.158C606.214 323.678 606.093 321.198 605.808 318.734C605.514 316.157 605.06 313.524 604.572 310.879C604.085 308.234 603.438 305.577 602.849 302.932C602.554 301.604 602.202 300.276 601.873 298.948L600.876 295.088L600.819 294.872C600.368 293.025 600.647 291.076 601.597 289.429C602.547 287.783 604.096 286.568 605.919 286.037C607.743 285.505 609.701 285.699 611.385 286.577C613.069 287.456 614.35 288.951 614.96 290.752L614.88 290.74Z" fill="#FF8B7B"/>
<path d="M611.479 283.656C602.611 280.875 597.316 286.551 598.79 298.119C599.843 304.74 601.429 311.266 603.53 317.633L623.069 311.616C621.368 302.444 617.41 285.518 611.479 283.656Z" fill="#AAA4EC"/>
<path d="M575.883 278.786C581.961 277.833 583.265 274.246 583.141 270.091C583.12 269.061 583.033 268.033 582.88 267.014L590.818 261.338L596.635 257.184C594.662 263.711 592.099 275.687 596.295 280.455C590.69 284.455 584.639 287.788 578.264 290.388C577.893 290.535 577.496 290.605 577.096 290.593C576.697 290.581 576.305 290.488 575.943 290.319C575.581 290.15 575.257 289.909 574.991 289.61C574.726 289.312 574.524 288.962 574.397 288.583C572.481 282.374 575.883 278.786 575.883 278.786Z" fill="#FF8B7B"/>
<path d="M597.077 243.754C597.497 252.836 598.211 258.069 594.208 263.291C588.198 271.135 576.756 268.524 573.66 259.885C570.882 252.075 570.644 238.589 578.979 233.776C580.773 232.702 582.816 232.118 584.906 232.081C586.995 232.044 589.058 232.556 590.889 233.565C592.72 234.574 594.254 236.046 595.34 237.834C596.426 239.621 597.025 241.663 597.077 243.754Z" fill="#FF8B7B"/>
<path d="M593.289 238.26C590.738 242.891 592.677 246.274 592.677 246.274L593.153 244.095C593.153 244.095 596.374 247.5 595.421 251.451C601.069 248.443 601.704 236.75 593.289 238.26Z" fill="#545454"/>
<path d="M597.995 239.645C587.789 241.915 582.051 240.86 580.237 240.474C584.512 240.178 585.635 238.203 585.635 238.203C585.635 238.203 575.429 240.712 573.353 239.906C575.406 233.685 580.157 230.824 589.83 231.199C599.504 231.574 597.995 239.645 597.995 239.645Z" fill="#333333"/>
<path d="M601.42 252.177C600.495 254.207 598.891 255.849 596.884 256.82C594.31 257.956 593.04 255.685 593.766 252.87C594.412 250.373 596.533 246.763 599.107 246.774C601.681 246.785 602.6 249.623 601.42 252.177Z" fill="#FF8B7B"/>
<path d="M583.82 248.102C583.899 248.84 583.582 249.476 583.106 249.544C582.629 249.612 582.176 249.067 582.096 248.341C582.017 247.614 582.346 246.967 582.811 246.899C583.276 246.831 583.82 247.376 583.82 248.102Z" fill="#263238"/>
<path d="M575.644 249.226C575.723 249.952 575.406 250.599 574.929 250.667C574.453 250.735 574.011 250.191 573.931 249.453C573.852 248.715 574.169 248.079 574.646 248.022C575.122 247.966 575.564 248.488 575.644 249.226Z" fill="#263238"/>
<path d="M578.287 249.237C577.663 251.591 576.729 253.851 575.508 255.958C576.915 256.991 579.035 256.139 579.035 256.139" stroke="#333333" stroke-width="0.199467"/>
<path d="M582.211 257.706C583.035 257.502 583.809 257.133 584.486 256.619C585.163 256.106 585.727 255.46 586.146 254.72C586.159 254.695 586.167 254.667 586.169 254.639C586.171 254.611 586.167 254.582 586.157 254.556C586.148 254.529 586.132 254.505 586.113 254.484C586.093 254.463 586.07 254.447 586.044 254.436C585.994 254.412 585.936 254.408 585.884 254.425C585.831 254.442 585.787 254.478 585.76 254.527C585.294 255.324 584.651 256.002 583.879 256.508C583.108 257.014 582.23 257.335 581.315 257.445C581.287 257.447 581.26 257.456 581.235 257.469C581.211 257.483 581.189 257.502 581.172 257.524C581.155 257.546 581.143 257.572 581.136 257.599C581.13 257.627 581.129 257.655 581.133 257.683C581.138 257.711 581.147 257.739 581.162 257.763C581.177 257.788 581.197 257.809 581.22 257.826C581.243 257.843 581.27 257.855 581.298 257.862C581.326 257.869 581.355 257.869 581.383 257.865C581.662 257.831 581.939 257.778 582.211 257.706Z" fill="#263238"/>
<path d="M586.089 245.094C586.156 245.074 586.218 245.039 586.27 244.992C586.31 244.952 586.343 244.904 586.365 244.851C586.386 244.799 586.398 244.742 586.398 244.685C586.398 244.628 586.386 244.572 586.365 244.519C586.343 244.466 586.31 244.419 586.27 244.379C585.811 243.88 585.238 243.5 584.6 243.273C583.962 243.045 583.278 242.977 582.607 243.073C582.551 243.082 582.497 243.103 582.449 243.135C582.401 243.166 582.36 243.207 582.329 243.255C582.298 243.303 582.278 243.358 582.269 243.414C582.26 243.471 582.263 243.529 582.278 243.584C582.289 243.64 582.311 243.693 582.343 243.74C582.374 243.787 582.415 243.827 582.463 243.858C582.511 243.889 582.564 243.909 582.62 243.919C582.676 243.928 582.733 243.926 582.789 243.913C583.316 243.845 583.853 243.906 584.352 244.09C584.852 244.274 585.299 244.575 585.658 244.969C585.71 245.028 585.779 245.072 585.855 245.094C585.931 245.116 586.012 245.116 586.089 245.094Z" fill="#263238"/>
<path d="M571.812 246.865C571.88 246.847 571.942 246.814 571.994 246.766C572.045 246.718 572.084 246.659 572.107 246.592C572.276 246.071 572.562 245.595 572.943 245.201C573.325 244.808 573.791 244.507 574.307 244.322C574.362 244.31 574.415 244.287 574.461 244.254C574.508 244.22 574.547 244.178 574.575 244.129C574.604 244.079 574.622 244.025 574.629 243.968C574.635 243.911 574.63 243.854 574.613 243.8C574.584 243.69 574.512 243.597 574.415 243.539C574.317 243.482 574.201 243.465 574.091 243.493C573.441 243.713 572.851 244.082 572.368 244.571C571.886 245.06 571.525 245.655 571.313 246.308C571.293 246.362 571.284 246.419 571.287 246.476C571.289 246.533 571.303 246.589 571.327 246.641C571.351 246.693 571.386 246.739 571.428 246.778C571.47 246.816 571.52 246.846 571.574 246.865C571.651 246.89 571.735 246.89 571.812 246.865Z" fill="#263238"/>
<path d="M581.326 324.864L572.016 319.108L572.878 330.563C572.878 330.563 580.668 333.355 581.734 329.223L581.326 324.864Z" fill="#FF8B7B"/>
<path d="M574.976 320.936C573.995 319.536 572.751 318.341 571.313 317.417C570.27 316.839 569.28 316.17 568.353 315.419C568.266 315.36 568.163 315.326 568.058 315.32C567.952 315.314 567.847 315.336 567.753 315.385C567.659 315.434 567.58 315.507 567.524 315.597C567.468 315.687 567.437 315.79 567.435 315.896C567.435 316.6 568.036 318.166 569.93 319.755C570.281 322.026 573.797 324.183 573.797 324.183L574.976 320.936Z" fill="#FF8B7B"/>
<path d="M563.976 320.074L564.804 327.248C564.84 327.553 564.968 327.84 565.171 328.071C565.373 328.302 565.641 328.466 565.938 328.542L572.912 330.563L572.05 319.211L565.711 318.405C565.481 318.368 565.245 318.385 565.023 318.455C564.801 318.525 564.597 318.645 564.429 318.807C564.261 318.969 564.133 319.167 564.054 319.387C563.975 319.607 563.949 319.842 563.976 320.074Z" fill="#FF8B7B"/>
<path d="M549.801 323.388L557.864 319.313L557.66 329.393C557.66 329.393 549.302 331.891 548.803 327.634L549.801 323.388Z" fill="#FF8B7B"/>
<path d="M561.344 319.687V327.634C561.344 327.85 561.273 328.061 561.142 328.233C561.011 328.406 560.827 328.53 560.618 328.587L557.613 329.371L557.817 319.29L560.085 318.7C560.235 318.656 560.393 318.649 560.547 318.679C560.7 318.709 560.844 318.775 560.967 318.871C561.09 318.968 561.188 319.092 561.253 319.234C561.319 319.376 561.35 319.531 561.344 319.687Z" fill="#FF8B7B"/>
<path d="M604.128 317.352C604.769 312.792 605.546 308.252 606.459 303.739" stroke="#333333" stroke-width="0.5"/>
<mask id="path-103-inside-1" fill="white">
</mask>
<path d="M594.259 263.217L594.06 263.065L594.06 263.065L594.259 263.217ZM573.71 259.812L573.475 259.896L573.475 259.896L573.71 259.812ZM597.121 256.69L597.367 256.733L597.368 256.724L597.369 256.716L597.121 256.69ZM601.471 252.104L601.244 251.999L601.244 252L601.471 252.104ZM594.06 263.065C588.183 270.735 576.982 268.201 573.946 259.728L573.475 259.896C576.63 268.701 588.313 271.388 594.457 263.369L594.06 263.065ZM573.946 259.728C573.196 257.62 572.632 255.09 572.376 252.427L571.878 252.475C572.138 255.175 572.71 257.746 573.475 259.896L573.946 259.728ZM596.874 256.646C596.469 258.952 595.638 261.007 594.06 263.065L594.457 263.37C596.087 261.244 596.949 259.112 597.367 256.733L596.874 256.646ZM597.369 256.716C597.367 256.735 597.363 256.75 597.359 256.76C597.355 256.771 597.351 256.779 597.348 256.785C597.34 256.797 597.334 256.803 597.332 256.805C597.328 256.808 597.342 256.795 597.391 256.783L597.27 256.298C597.066 256.349 596.891 256.477 596.872 256.664L597.369 256.716ZM599.157 246.95C600.333 246.955 601.12 247.597 601.489 248.54C601.864 249.496 601.811 250.772 601.244 251.999L601.698 252.209C602.311 250.881 602.388 249.462 601.955 248.357C601.516 247.239 600.556 246.456 599.159 246.45L599.157 246.95ZM601.244 252C600.372 253.912 598.882 255.471 597.017 256.426L597.245 256.871C599.21 255.864 600.78 254.222 601.699 252.207L601.244 252Z" fill="#333333" mask="url(#path-103-inside-1)"/>
</svg>
