<svg width="938" height="694" viewBox="0 0 938 694" fill="none" xmlns="http://www.w3.org/2000/svg">
<rect width="938" height="694" rx="16" fill="white"/>
<path d="M474.336 31.3825C407.764 57.8628 401.387 125.556 341.447 131.363C289.22 136.425 269.368 87.4247 232.72 96.2057C176.897 109.58 141.798 242.724 164.219 352.202C187.37 465.246 284.637 615.523 445.783 625.779C626.702 637.293 763.594 464.386 771.952 312.65C772.855 296.241 778.194 158.749 673.122 77.5287C667.871 73.4716 564.332 -4.41481 474.336 31.3825Z" fill="#E6E4FA" fill-opacity="0.5"/>
<path d="M459.686 325.824L489.551 277.585C489.551 277.585 470.438 253.177 445.662 254.182C395.112 256.232 396.846 211.798 394.79 193.08C391.687 164.85 376.647 141.327 350.022 163.512C323.4 185.696 297.484 130.767 299.042 84.4539C300.567 39.1322 220.915 10.2708 208.613 108.06C201.266 166.458 253.896 189.21 277.745 207.022C301.593 224.832 280.458 263.628 319.198 269.872C352.288 275.206 384.362 266.259 392.601 293.361C400.84 320.463 420.095 334.666 459.686 325.824Z" fill="url(#paint0_linear)"/>
<path d="M459.686 325.824L489.551 277.585C489.551 277.585 470.438 253.177 445.662 254.182C395.112 256.232 396.846 211.798 394.79 193.08C391.687 164.85 377.656 144.564 351.033 159.705C320.911 176.836 297.486 130.769 299.042 84.456C300.567 39.1344 220.915 10.273 208.613 108.062C201.266 166.46 253.896 189.212 277.745 207.024C301.593 224.834 280.458 263.63 319.198 269.874C352.288 275.208 384.362 266.261 392.601 293.363C400.84 320.465 420.095 334.666 459.686 325.824Z" fill="#D4D1F5"/>
<g opacity="0.5">
<path opacity="0.5" d="M482.361 331.808L482.798 330.692C482.107 330.422 413.067 303.086 352.792 255.34C297.263 211.355 238.028 140.542 271.174 52.9821L270.055 52.5586C255.299 91.5367 257.308 130.492 276.02 168.342C290.969 198.577 316.554 228.169 352.067 256.298C412.482 304.147 481.67 331.537 482.361 331.808Z" fill="#BEB8F2"/>
<path opacity="0.5" d="M284.522 183.82L285.022 182.732C248.809 166.087 208.984 123.68 208.586 123.254L207.71 124.072C208.111 124.498 248.095 167.078 284.522 183.82Z" fill="#BEB8F2"/>
<path opacity="0.5" d="M272.744 158.259C272.618 110.75 302.693 85.0671 302.997 84.8148L302.229 83.8958C301.92 84.1526 271.42 110.171 271.546 158.263L272.744 158.259Z" fill="#BEB8F2"/>
<path opacity="0.5" d="M388.625 260.321C347.681 219.196 376.341 146.603 376.679 145.918L375.643 145.319C375.247 145.959 346.469 219.678 387.776 261.165L388.625 260.321Z" fill="#BEB8F2"/>
<path opacity="0.5" d="M368.092 248.032L368.502 246.906C333.717 234.223 291.811 254.524 291.39 254.732L291.919 255.806C292.336 255.603 333.793 235.528 368.092 248.032Z" fill="#BEB8F2"/>
<path opacity="0.5" d="M466.754 302.065C448.983 289.022 450.71 253.177 450.73 252.817L449.535 252.752C449.454 254.25 447.751 289.603 466.045 303.031L466.754 302.065Z" fill="#BEB8F2"/>
<path opacity="0.5" d="M450.318 295.812L450.768 294.701C434.621 288.146 404.679 300.15 394.839 304.095C393.447 304.651 392.247 305.133 392.017 305.176L392.222 306.357C392.549 306.3 393.348 305.983 395.282 305.205C405.012 301.306 434.616 289.439 450.318 295.812Z" fill="#BEB8F2"/>
</g>
<path d="M439.047 309.751C449.709 298.72 464.506 300.227 475.044 302.995C475.512 304.392 476.141 305.077 476.924 306.376C483.997 318.113 484.513 324.63 489.658 337.299C490.766 340.027 491.583 349.02 491.68 352.716L491.752 359.61C491.752 359.61 464.29 381.798 450.02 367.652C435.751 353.502 406.996 371.267 390.603 378.8C380.535 383.425 374.451 382.314 370.479 383.42C328.436 395.123 320.487 411.739 304.479 407.143C286.807 402.07 291.435 380.37 272.502 373.835C251.123 366.455 230.869 389.171 212.197 377.665C208.995 375.691 205.761 373.578 202.866 369.481C195.721 359.368 199.139 347.988 187.146 343.138C163.041 333.386 147.524 309.046 161.483 286.161C175.259 263.576 219.313 269.083 265.325 305.685C301.014 327.982 308.76 325.738 326.409 316.601C338.771 310.201 368.053 284.656 387.786 298.852C407.52 313.047 426.858 322.361 439.047 309.751Z" fill="#D4D1F5"/>
<g opacity="0.5">
<path opacity="0.5" d="M487.91 330.365L488.113 331.352C482.677 332.526 477.178 333.636 471.771 334.654C431.742 342.187 392.426 345.409 354.911 344.226C323.123 343.223 292.184 339.054 262.949 331.834C239.438 326.027 216.9 318.223 195.959 308.64C181.237 301.903 167.449 294.363 154.983 286.228C152.81 284.812 150.66 283.232 148.579 281.707C145.807 279.673 142.941 277.569 140 275.832L140.437 274.952C143.418 276.713 146.303 278.831 149.095 280.878C151.164 282.397 153.306 283.969 155.456 285.37C167.886 293.48 181.631 300.997 196.31 307.715C217.2 317.275 239.686 325.058 263.14 330.852C292.314 338.058 323.193 342.219 354.918 343.219C392.37 344.399 431.625 341.185 471.591 333.663C476.989 332.649 482.479 331.539 487.91 330.365Z" fill="#FCFDFE"/>
<path opacity="0.5" d="M299.007 338.063L298.919 339.063C258.975 333.99 200.823 372.083 200.24 372.468L199.738 371.607C200.321 371.22 258.743 332.949 299.007 338.063Z" fill="#FCFDFE"/>
<path opacity="0.5" d="M411.679 341.73L411.699 342.737C384.25 342.701 348.906 299.72 348.551 299.285L349.249 298.63C349.6 299.06 384.66 341.694 411.679 341.73Z" fill="#FCFDFE"/>
<path opacity="0.5" d="M427.225 340.299L427.409 341.291C409.841 344.681 387.776 359.454 365.279 382.889C364.148 384.067 364.148 384.067 363.975 384.103L363.779 383.114L363.878 383.607L363.617 383.186C363.7 383.116 364.128 382.672 364.623 382.156C387.247 358.589 409.479 343.724 427.225 340.299Z" fill="#FCFDFE"/>
<path opacity="0.5" d="M477.957 332.357L477.872 333.357C458.214 330.947 441.992 304.318 441.832 304.05L442.614 303.516C442.771 303.779 458.75 330.003 477.957 332.357Z" fill="#FCFDFE"/>
<path opacity="0.5" d="M488.453 331.787C475.023 340.66 463.607 354.034 453.553 372.673L452.742 372.152C462.875 353.372 474.393 339.887 487.953 330.926L488.453 331.787Z" fill="#FCFDFE"/>
<path opacity="0.5" d="M208.724 313.143L208.584 314.135C186.495 309.985 162.509 311.118 154.628 311.492C152.72 311.582 152.047 311.612 151.811 311.578L151.912 310.58C152.092 310.602 153.184 310.551 154.564 310.485C162.47 310.111 186.533 308.974 208.724 313.143Z" fill="#FCFDFE"/>
<path opacity="0.5" d="M243.832 325.59L243.424 326.486C224.557 316.223 210.888 273.253 210.316 271.428L211.201 271.126C211.341 271.568 225.315 315.518 243.832 325.59Z" fill="#FCFDFE"/>
</g>
<path d="M486.378 303.04C486.504 306.523 519.335 315.304 498.431 328.926C493.209 332.33 474.2 338.344 477.447 363.768C478.078 368.704 478.706 373.639 479.336 378.573C469.01 384.601 458.163 388.37 451.502 374.175C441.16 352.131 402.582 358.436 390.011 367.23C374.449 378.113 337.718 402.665 321.226 368.848C307.495 340.694 304.047 319.582 267.62 323.941C231.191 328.3 205.257 311.42 201.724 276.317C198.005 239.375 147.259 217.594 157.693 184.923C175.879 127.994 263.137 161.056 296.556 220.378C329.974 279.7 345.565 239.467 374.818 232.486C377.57 231.993 381.875 231.439 387.081 231.75C419.128 233.667 429.741 265.065 458.825 283.996C498.488 309.812 486.166 297.172 486.378 303.04Z" fill="#AAA4EC"/>
<g opacity="0.5">
<path opacity="0.5" d="M469.155 334.141L469.106 335.889C348.492 331.341 230.249 264.778 160.516 162.178L161.854 161.16C231.292 263.33 349.041 329.613 469.155 334.141Z" fill="#FCFDFE"/>
<path opacity="0.5" d="M403.568 325.691L403.845 327.416C357.094 335.585 327.456 384.411 327.161 384.905L325.765 383.963C326.062 383.465 356.078 333.987 403.568 325.691Z" fill="#FCFDFE"/>
<path opacity="0.5" d="M446.984 332.663L446.454 334.316C400.915 317.728 380.367 227.395 380.165 226.485L381.77 226.093C381.973 226.994 402.311 316.39 446.984 332.663Z" fill="#FCFDFE"/>
<path opacity="0.5" d="M298.319 276.787L297.925 278.486C260.885 268.637 211.635 301.796 211.141 302.132L210.243 300.659C210.741 300.319 260.595 266.758 298.319 276.787Z" fill="#FCFDFE"/>
<path opacity="0.5" d="M228.744 236.602L227.503 237.748C198.863 202.945 201.644 140.802 201.678 140.178L203.326 140.28C203.292 140.897 200.55 202.341 228.744 236.602Z" fill="#FCFDFE"/>
</g>
<path d="M462.643 391.437L453.023 335.301C453.023 335.301 479.997 319.795 502.668 330.07C548.926 351.029 564.047 309.037 573.009 292.396C586.526 267.301 609.379 251.084 625.795 281.757C642.21 312.429 687.007 271.092 702.999 227.417C718.649 184.677 803.624 187.845 778.242 283.462C763.085 340.565 705.55 341.896 676.655 349.479C647.761 357.061 652.814 401.119 614.421 392.329C581.626 384.821 555.154 364.407 537.284 386.517C519.412 408.623 496.147 414.584 462.643 391.437Z" fill="url(#paint1_linear)"/>
<path d="M462.643 391.437L453.023 335.301C453.023 335.301 479.997 319.795 502.668 330.07C548.926 351.029 564.047 309.037 573.009 292.396C586.526 267.301 607.22 253.715 626.288 277.835C647.862 305.126 687.007 271.095 702.999 227.417C718.649 184.677 803.624 187.845 778.242 283.462C763.085 340.565 705.55 341.896 676.655 349.479C647.761 357.061 652.814 401.119 614.421 392.329C581.626 384.821 555.154 364.407 537.284 386.517C519.412 408.623 496.147 414.584 462.643 391.437Z" fill="#D4D1F5"/>
<g opacity="0.5">
<path opacity="0.5" d="M454.789 383.317L454.803 382.114C455.548 382.123 530.075 382.711 604.134 361.006C672.362 341.011 754.14 297.456 756.274 203.499L757.477 203.526C756.527 245.351 739.99 280.838 708.323 308.999C683.029 331.494 648.079 349.382 604.446 362.169C530.219 383.918 455.535 383.326 454.789 383.317Z" fill="#BEB8F2"/>
<path opacity="0.5" d="M684.707 310.243L684.653 309.042C724.613 307.204 777.635 282.76 778.166 282.515L778.673 283.605C778.137 283.85 724.901 308.393 684.707 310.243Z" fill="#BEB8F2"/>
<path opacity="0.5" d="M718.051 297.474C736.058 253.319 717.751 218.092 717.562 217.74L718.623 217.175C718.814 217.531 737.391 253.231 719.163 297.929L718.051 297.474Z" fill="#BEB8F2"/>
<path opacity="0.5" d="M553.424 357.276C607.005 334.447 607.678 256.105 607.622 255.342L608.811 255.173C608.937 255.916 607.951 335.35 553.897 358.382L553.424 357.276Z" fill="#BEB8F2"/>
<path opacity="0.5" d="M577.153 353.583L577.196 352.38C614.334 353.691 645.679 388.374 645.99 388.725L645.093 389.525C644.785 389.178 613.774 354.874 577.153 353.583Z" fill="#BEB8F2"/>
<path opacity="0.5" d="M465.013 366.667C486.459 361.229 498.35 327.229 498.467 326.887L499.604 327.277C499.116 328.7 487.386 362.236 465.308 367.832L465.013 366.667Z" fill="#BEB8F2"/>
<path opacity="0.5" d="M482.66 367.043V365.84C500.152 365.829 523.489 388.281 531.156 395.659C532.239 396.702 533.176 397.601 533.374 397.729L532.739 398.75C532.458 398.574 531.834 397.977 530.325 396.526C522.741 389.232 499.668 367.032 482.66 367.043Z" fill="#BEB8F2"/>
</g>
<path d="M309.101 314.474C317.254 327.538 312.199 341.592 306.948 351.189C305.473 351.308 304.656 351.752 303.199 352.2C290.055 356.244 283.588 355.169 270.003 357.109C267.08 357.525 258.125 356.14 254.502 355.34L247.772 353.739C247.772 353.739 232.827 321.597 250.064 311.125C267.301 300.652 256.977 268.324 253.619 250.523C251.557 239.593 254.115 233.932 254 229.794C252.802 185.988 238.553 174.214 246.909 159.731C256.135 143.742 276.139 153.514 287.094 136.65C299.463 117.608 282.26 92.3624 297.991 76.9586C300.688 74.3184 303.53 71.6783 308.223 69.8514C319.801 65.3415 330.051 71.4327 337.685 60.924C353.026 39.8006 380.489 30.5849 399.383 49.7349C418.03 68.6349 401.986 110.228 355.19 146.186C324.825 175.554 325.131 183.645 329.747 203.059C332.981 216.659 350.75 251.386 332.143 267.17C313.537 282.957 299.778 299.541 309.101 314.474Z" fill="#C8C4F8"/>
<g opacity="0.5">
<path opacity="0.5" d="M261.378 373.782L260.366 373.742C260.542 368.159 260.794 362.532 261.114 357.018C263.487 316.186 269.887 277.093 280.137 240.824C288.822 210.093 300.385 180.957 314.506 154.222C325.861 132.723 338.926 112.654 353.335 94.5714C363.466 81.8595 374.151 70.2537 385.094 60.0784C387.002 58.3055 389.06 56.5912 391.05 54.9333C393.703 52.7256 396.445 50.4414 398.85 47.9995L399.6 48.637C397.164 51.115 394.401 53.4127 391.73 55.6361C389.749 57.2851 387.702 58.9903 385.813 60.7452C374.903 70.889 364.25 82.461 354.15 95.1346C339.777 113.172 326.744 133.194 315.416 154.644C301.324 181.322 289.784 210.402 281.117 241.074C270.884 277.282 264.494 316.312 262.125 357.081C261.805 362.589 261.553 368.207 261.378 373.782Z" fill="#FCFDFE"/>
<path opacity="0.5" d="M316.998 178.192L316.046 177.863C330.671 140.171 307.687 74.2667 307.453 73.6067L308.412 73.3251C308.649 73.9896 331.74 140.198 316.998 178.192Z" fill="#FCFDFE"/>
<path opacity="0.5" d="M284.601 280.053L283.617 279.828C290.309 253.091 340.729 229.073 341.238 228.834L341.706 229.672C341.201 229.911 291.19 253.733 284.601 280.053Z" fill="#FCFDFE"/>
<path opacity="0.5" d="M282.223 295.55L281.214 295.489C282.173 277.549 273.141 252.465 255.783 224.858C254.909 223.471 254.909 223.471 254.916 223.293L255.927 223.342L255.422 223.318L255.895 223.164C255.942 223.263 256.271 223.786 256.654 224.394C274.112 252.156 283.193 277.427 282.223 295.55Z" fill="#FCFDFE"/>
<path opacity="0.5" d="M277.654 346.908L276.702 346.584C283.815 328.013 313.676 318.667 313.977 318.574L314.309 319.464C314.009 319.554 284.605 328.763 277.654 346.908Z" fill="#FCFDFE"/>
<path opacity="0.5" d="M275.664 357.275C270.282 342.036 260.03 327.668 244.321 313.353L245.024 312.688C260.852 327.117 271.189 341.61 276.623 356.996L275.664 357.275Z" fill="#FCFDFE"/>
<path opacity="0.5" d="M345.857 105.918L344.927 105.54C354.324 85.0223 359.037 61.3736 360.586 53.6041C360.962 51.7231 361.095 51.0609 361.185 50.8401L362.131 51.1825C362.065 51.3537 361.849 52.4282 361.579 53.7888C360.025 61.5831 355.296 85.3061 345.857 105.918Z" fill="#FCFDFE"/>
<path opacity="0.5" d="M325.225 137.109L324.45 136.496C339.019 120.599 384.169 117.704 386.085 117.589L386.166 118.524C385.7 118.551 339.521 121.509 325.225 137.109Z" fill="#FCFDFE"/>
</g>
<path d="M581.96 388.941C578.539 388.221 562.025 418.082 553.835 394.409C551.788 388.495 550.541 368.514 525.001 365.511C520.043 364.928 515.084 364.344 510.128 363.761C506.762 352.236 505.724 340.752 521.162 337.706C545.134 332.976 548.35 293.856 542.837 279.472C536.014 261.669 521.018 219.925 557.944 212.054C588.686 205.501 610.077 207.263 614.667 170.711C619.258 134.156 641.981 112.981 677.016 118.05C713.886 123.384 747.399 79.2181 776.677 97.3117C827.693 128.838 774.342 205.846 708.48 224.023C642.618 242.197 678.009 267.148 677.712 297.345C677.525 300.147 677.02 304.475 675.455 309.474C665.818 340.234 632.674 342.962 607.188 366.71C572.432 399.099 587.724 390.158 581.96 388.941Z" fill="#AAA4EC"/>
<g opacity="0.5">
<path opacity="0.5" d="M546.744 366.641L545.052 366.168C578.732 249.742 672.217 150.667 789.023 107.605L789.689 109.155C673.374 152.037 580.284 250.7 546.744 366.641Z" fill="#FCFDFE"/>
<path opacity="0.5" d="M579.989 302.754L578.241 302.605C581.628 255.069 541.274 214.348 540.866 213.942L542.121 212.809C542.535 213.221 583.427 254.47 579.989 302.754Z" fill="#FCFDFE"/>
<path opacity="0.5" d="M562.673 343.372L561.192 342.455C588.386 302.103 681.321 303.991 682.256 304.013L682.249 305.673C681.321 305.651 589.35 303.786 562.673 343.372Z" fill="#FCFDFE"/>
<path opacity="0.5" d="M649.4 205.078L647.842 204.283C666.412 170.58 646.074 114.545 645.865 113.984L647.515 113.466C647.727 114.036 668.315 170.751 649.4 205.078Z" fill="#FCFDFE"/>
<path opacity="0.5" d="M688.996 149.199L688.501 147.577C732.448 136.868 787.382 166.508 787.933 166.809L787.121 168.255C786.576 167.955 732.258 138.658 688.996 149.199Z" fill="#FCFDFE"/>
</g>
<path d="M706.762 139.347C706.762 127.66 698.998 117.685 688.741 115.133C688.374 115.043 687.969 114.959 687.595 114.887C686.478 114.671 685.314 114.542 684.147 114.509L467.142 108.242L250.139 101.97C249.679 101.957 249.222 101.954 248.767 101.966C242.94 102.092 237.599 104.099 233.343 107.413C233.264 107.474 233.187 107.534 233.109 107.595C232.498 108.082 231.908 108.595 231.345 109.136C231.332 109.15 231.318 109.161 231.305 109.172C230.972 109.492 230.65 109.823 230.334 110.161C226.083 114.725 223.487 120.848 223.487 127.649V146.621V444.375C223.487 446.657 223.78 448.863 224.329 450.955C224.658 452.21 225.081 453.427 225.588 454.594C228.956 462.363 236.079 468.037 244.717 469.497C246.466 469.792 248.279 469.918 250.137 469.849L581.059 457.752L684.208 453.985C696.649 453.53 706.766 442.334 706.766 428.976V156.697V139.347H706.762Z" fill="#C7C7C9"/>
<path d="M690.878 114.511L256.88 101.97C242.197 101.547 230.235 113.042 230.235 127.648V444.375C230.235 458.982 242.194 470.387 256.88 469.851L690.878 453.987C703.319 453.532 713.362 442.337 713.362 428.98V139.347C713.362 125.988 703.319 114.871 690.878 114.511Z" fill="white"/>
<path d="M256.88 461.446C246.909 461.795 238.771 454.017 238.771 444.105V127.856C238.771 117.944 246.909 110.102 256.88 110.375L690.878 122.267C699.34 122.499 706.203 130.081 706.203 139.173V429.208C706.203 438.298 699.34 445.934 690.878 446.231L256.88 461.446Z" fill="url(#paint2_linear)"/>
<path d="M690.878 114.511L256.88 101.97C242.197 101.547 230.235 113.042 230.235 127.648V146.62L713.362 156.694V139.344C713.362 125.988 703.319 114.871 690.878 114.511Z" fill="#D8DEE8"/>
<path d="M277.59 126.254C277.59 130.994 273.731 134.749 268.961 134.638C264.185 134.528 260.306 130.584 260.306 125.828C260.306 121.073 264.183 117.32 268.961 117.444C273.731 117.57 277.59 121.514 277.59 126.254Z" fill="white"/>
<path d="M307.687 126.997C307.687 131.712 303.868 135.447 299.151 135.337C294.424 135.227 290.589 131.305 290.589 126.574C290.589 121.843 294.426 118.111 299.151 118.235C303.868 118.358 307.687 122.283 307.687 126.997Z" fill="white"/>
<path d="M337.462 127.732C337.462 132.422 333.684 136.137 329.018 136.028C324.343 135.92 320.547 132.019 320.547 127.315C320.547 122.611 324.343 118.897 329.018 119.018C333.684 119.14 337.462 123.042 337.462 127.732Z" fill="white"/>
<path d="M687.117 429.933L261.292 443.513V194.742L687.117 200.023V429.933Z" fill="#C7C7C9"/>
<g opacity="0.5">
<path opacity="0.5" d="M491.422 172.889L261.292 168.981V182.418L491.422 185.777V172.889Z" fill="white"/>
<path opacity="0.5" d="M663.057 175.806V188.282L687.117 188.633V176.214L663.057 175.806Z" fill="white"/>
</g>
<mask id="mask0" style="mask-type:alpha" maskUnits="userSpaceOnUse" x="261" y="194" width="427" height="250">
<path d="M687.117 429.933L261.292 443.512V194.742L687.117 200.022V429.933Z" fill="url(#paint3_linear)"/>
</mask>
<g mask="url(#mask0)">
<path d="M505.443 239.505L503.997 233.391C503.997 233.391 501.537 232.152 500.841 229.966C500.145 227.779 500.145 227.779 500.145 227.779C500.145 227.779 500.062 225.658 502.751 224.099C503.358 223.747 503.782 223.141 503.859 222.437C504.09 220.322 504.569 215.997 504.727 214.9C504.83 214.174 505.333 213.41 505.814 212.822C506.143 212.421 506.786 212.643 506.791 213.164L506.892 222.167C506.892 222.167 508.828 222.193 509.057 223.897C509.057 223.897 510.385 225.261 510.196 226.969C510.007 228.676 508.744 232.585 508.744 232.585L509.775 238.905L505.443 239.505Z" fill="#FEB3B2"/>
<path d="M501.955 237.613C502.571 241.65 505.779 265.068 490.773 281.866C474.107 300.522 444.356 303.1 416.924 291.01C415.711 294.795 398.672 337.358 419.216 355.7C441.395 375.502 498.473 355.21 517.599 314.326C534.039 279.185 515.443 242.007 512.401 236.148C508.915 236.637 505.433 237.125 501.955 237.613Z" fill="#AAA4EC"/>
<path d="M442.4 419.997C441.222 449.455 441.461 482.712 444.319 519.102C447.145 555.093 452.044 587.884 457.752 616.908C454.382 617.446 451.015 617.984 447.65 618.52C439.666 609.659 429.748 596.028 425.58 577.861C422.996 566.594 424.344 561.086 423.047 547.43C420.983 525.697 415.12 513.848 409.367 495.956C404.204 479.9 398.341 456.529 396.153 425.832C411.509 423.893 426.924 421.948 442.4 419.997Z" fill="url(#paint4_linear)"/>
<path opacity="0.3" d="M437.765 557.634C434.073 542.587 426.97 538.329 426.718 524.297C426.539 514.373 430.04 513.713 429.808 504.208C429.455 489.79 421.174 481.916 417.02 472.709C412.639 462.996 410.961 447.602 422.776 422.471C413.881 423.593 405.008 424.713 396.153 425.829C398.341 456.525 404.204 479.897 409.367 495.953C415.121 513.845 420.983 525.694 423.047 547.427C424.344 561.083 422.995 566.592 425.58 577.858C429.747 596.025 439.665 609.656 447.65 618.517C448.506 618.381 449.361 618.244 450.218 618.107C441.581 607.158 438.539 597.649 437.765 590.028C436.506 577.634 441.49 572.818 437.765 557.634Z" fill="url(#paint5_linear)"/>
<path d="M408.976 417.12C405.015 454.202 401.378 491.974 398.108 530.423C395.656 559.252 393.473 587.725 391.542 615.831C388.183 615.88 384.826 615.93 381.474 615.979C378.577 609.507 374.798 599.692 372.501 587.4C369.713 572.48 370.985 563.93 370.217 548.697C369.355 531.614 367.014 527.678 363.643 505.919C356.809 461.818 353.396 439.795 364.231 427.235C367.756 423.15 378.678 413.063 408.976 417.12Z" fill="url(#paint6_linear)"/>
<path opacity="0.3" d="M523.704 273.059C522.388 277.475 520.527 280.907 518.533 283.591C511.318 293.296 498.844 298.36 497.849 311.161C497.352 317.558 500.128 320.628 497.619 324.681C494.066 330.421 486.245 327.902 476.026 332.629C466.981 336.812 465.066 342.511 459.889 346.715C452.889 352.4 439.593 355.609 412.115 345.509C413.777 349.414 416.079 352.902 419.213 355.7C441.394 375.502 498.47 355.21 517.596 314.326C524.209 300.193 525.142 285.706 523.704 273.059Z" fill="#8881CE"/>
<path d="M322.521 299.978C340.396 294.012 367.829 287.478 401.646 289.394C421.37 290.511 438.407 294.226 451.959 298.291C453.794 308.74 455.631 319.195 457.469 329.653C457.892 340.116 458.028 354.28 456.87 370.982C455.712 387.679 454.58 387.901 451.93 411.427C447.613 449.753 449.418 459.865 441.811 464.206C436.871 467.025 435.086 463.338 409.986 459.887C393.246 457.587 384.729 456.494 376.297 459.11C364.844 462.664 361.019 469.188 356.309 466.843C351.797 464.597 351.223 456.575 350.679 442.604C349.84 421.058 349.891 406.435 349.813 401.198C349.458 377.17 343.548 358.691 335.992 335.068C331.273 320.317 326.309 308.371 322.521 299.978Z" fill="#AAA4EC"/>
<path d="M399.397 265.415C399.129 271.488 398.214 276.258 397.414 279.512C396.498 283.239 395.93 284.18 395.228 284.925C394.173 286.049 392.614 286.945 384.006 288.512C379.33 289.363 378.739 289.29 378.611 289.751C377.996 292.002 390.181 300.679 403.331 299.718C411.401 299.129 418.949 294.974 418.629 292.493C418.307 289.995 410.222 290.764 408.07 286.142C406.574 282.929 408.664 278.654 411.054 275.155C409.137 270.944 401.309 269.622 399.397 265.415Z" fill="#FBADAB"/>
<path d="M414.137 268.802C416.166 266.363 416.518 261.893 414.483 258.922C412.734 256.365 409.799 255.826 408.043 255.504C402.96 254.57 396.402 256.33 393.913 260.981C392.438 263.735 394.999 269.831 395.393 270.923C395.84 272.158 396.74 272.632 397.546 273.596C398.664 274.935 400.414 277.063 403.265 280.619C403.551 279.646 403.974 278.446 404.612 277.157C404.858 276.661 405.842 274.725 407.259 273.16C410.1 270.021 412.215 271.111 414.137 268.802Z" fill="url(#paint7_linear)"/>
<path d="M399.094 277.509C399.094 277.509 402.158 283.361 408.876 283.374C414.901 283.386 416.5 269.713 412.816 266.545C411.587 265.489 409.047 264.916 406.935 265.373C405.688 265.644 405.244 266.137 403.199 266.537C401.313 266.907 400.798 266.662 400.212 267.106C399.479 267.663 398.887 269.107 399.85 273.192C398.769 271.935 397.423 271.39 396.428 271.793C396.269 271.858 395.845 272.116 395.59 272.532C394.673 274.042 395.967 276.134 399.094 277.509Z" fill="#FEB3B2"/>
<path d="M399.985 266.27C400.262 266.509 399.322 267.55 399.174 269.101C398.888 272.113 401.694 275.941 404.735 276.454C406.535 276.758 407.09 275.679 410.1 275.557C411.964 275.483 413.496 275.827 414.456 276.109C415.224 279.492 414.164 282.741 411.907 284.128C409.479 285.619 406.543 284.413 405.315 283.909C404.494 283.572 401.865 282.497 400.599 279.898C399.279 277.192 400.79 275.715 399.213 273.839C398.417 272.893 397.331 272.434 396.346 270.639C396.078 270.152 395.904 269.725 395.799 269.438C397.431 267.872 399.583 265.924 399.985 266.27Z" fill="url(#paint8_linear)"/>
<path d="M412.211 277.193C412.211 277.193 410.878 277.797 408.644 277.517C408.536 277.504 408.414 277.528 408.398 277.585C408.335 277.798 409.72 278.866 411.065 278.577C412.02 278.37 412.798 277.513 412.684 277.273C412.635 277.171 412.421 277.169 412.211 277.193Z" fill="url(#paint9_linear)"/>
<path opacity="0.3" d="M432.016 451.248C419.66 445.45 419.732 434.35 408.227 429.345C391.869 422.227 373.873 436.927 371.071 432.6C368.158 428.102 389.627 415.261 386.764 401.827C384.49 391.158 369.51 392.62 361.511 377.925C353.937 364.013 363.525 356.572 356.818 351.654C354.416 349.892 348.377 345.413 340.363 348.868C345.95 366.956 349.521 381.544 349.811 401.2C349.888 406.436 349.836 421.061 350.677 442.605C351.222 456.574 351.796 464.598 356.307 466.845C361.017 469.189 364.842 462.665 376.295 459.111C384.727 456.493 393.242 457.587 409.984 459.889C435.084 463.338 436.869 467.025 441.809 464.207C445.029 462.37 446.561 459.484 447.587 453.869C442.526 454.243 437.165 453.662 432.016 451.248Z" fill="#8881CE"/>
<path d="M339.01 400.906L344.943 400.738C344.943 400.738 351.455 395.321 354.421 395.755C357.391 396.188 361.837 398.433 362.38 398.894C362.922 399.354 360.753 401.781 358.583 401.475C356.415 401.17 351.582 402.23 350.719 404.166C349.855 406.1 346.11 407.172 345.474 406.005L337.498 407.397L339.01 400.906Z" fill="#FEB3B2"/>
<path d="M340.804 398.822C341.219 403.844 340.16 407.215 338.392 409.494C330.565 419.585 304.082 414.544 288.428 400.3C276.881 389.795 270.781 373.848 271.005 359.716C271.444 332.138 296.138 305.523 333.163 296.733C338.673 313.795 344.193 330.881 349.719 347.991C326.753 347.841 312.867 365.302 314.922 378.042C316.455 387.536 327.147 396.345 340.804 398.822Z" fill="#AAA4EC"/>
<path d="M570.344 281.216L636.849 277.827C638.153 277.76 639.247 278.465 639.283 279.39L640.603 315.607C640.636 316.539 639.584 317.332 638.271 317.362C626.232 317.644 572.781 318.902 570.427 319.076C568.101 319.249 568.073 290.109 568.101 282.918C568.104 282.029 569.093 281.279 570.344 281.216Z" fill="#E4E4E2"/>
<path opacity="0.67" d="M571.591 317.662L571.568 317.584C570.585 314.283 569.996 300.66 570.065 282.877C570.065 282.716 570.22 282.587 570.423 282.577L636.928 279.189C637.052 279.182 637.136 279.22 637.186 279.252C637.292 279.321 637.316 279.408 637.318 279.469L638.638 315.686C638.643 315.852 638.488 315.988 638.28 315.997H638.267C628.697 316.221 580.507 317.353 571.671 317.658L571.591 317.662ZM636.953 279.399C636.947 279.399 636.944 279.399 636.939 279.399L570.434 282.785C570.337 282.79 570.277 282.842 570.277 282.875C570.208 300.501 570.785 314.027 571.748 317.443C580.799 317.134 628.725 316.008 638.266 315.785H638.276C638.368 315.782 638.43 315.727 638.43 315.693L637.11 279.476C637.11 279.469 637.11 279.452 637.074 279.429C637.05 279.416 637.011 279.399 636.953 279.399Z" fill="#FBB881"/>
<path d="M585.951 305.241H572.363L570.874 310.291C570.637 311.091 569.905 311.638 569.072 311.638H560.969C559.656 311.638 558.749 310.326 559.21 309.097L572.354 274.109C572.63 273.376 573.33 272.891 574.114 272.891H584.567C585.351 272.891 586.051 273.376 586.327 274.109L599.47 309.097C599.932 310.326 599.023 311.638 597.71 311.638H589.285C588.457 311.638 587.726 311.096 587.486 310.303L585.951 305.241ZM583.468 296.862L579.193 282.932L574.963 296.862H583.468Z" fill="#AAA4EC"/>
<path d="M617.548 291.055H632.232C633.146 291.055 633.887 291.797 633.887 292.711V294.503C633.887 294.93 633.723 295.34 633.427 295.649L622.338 307.215H632.654C633.568 307.215 634.309 307.957 634.309 308.871V309.984C634.309 310.898 633.568 311.64 632.654 311.64H616.44C615.526 311.64 614.784 310.898 614.784 309.984V308.036C614.784 307.609 614.949 307.199 615.245 306.89L626.214 295.451H617.548C616.634 295.451 615.893 294.71 615.893 293.795V292.711C615.893 291.795 616.634 291.055 617.548 291.055Z" fill="#AAA4EC"/>
<path d="M603.397 311.638C604.136 311.638 604.735 311.039 604.735 310.3C604.735 309.561 604.136 308.961 603.397 308.961C602.658 308.961 602.059 309.561 602.059 310.3C602.059 311.039 602.658 311.638 603.397 311.638Z" fill="#AAA4EC"/>
<path d="M608.747 310.3C608.747 311.04 608.148 311.638 607.409 311.638C606.669 311.638 606.071 311.04 606.071 310.3C606.071 309.56 606.669 308.961 607.409 308.961C608.148 308.96 608.747 309.56 608.747 310.3Z" fill="#AAA4EC"/>
<path d="M612.763 310.3C612.763 311.04 612.164 311.638 611.425 311.638C610.685 311.638 610.087 311.04 610.087 310.3C610.087 309.56 610.685 308.961 611.425 308.961C612.164 308.96 612.763 309.56 612.763 310.3Z" fill="#AAA4EC"/>
<path d="M518.337 344.065L584.412 340.768C585.707 340.704 586.791 341.278 586.817 342.045L587.862 372.052C587.89 372.823 586.839 373.489 585.533 373.524C573.574 373.846 520.479 375.28 518.139 375.443C515.827 375.603 516.012 351.453 516.093 345.493C516.106 344.755 517.094 344.126 518.337 344.065Z" fill="#E4E4E2"/>
<path opacity="0.67" d="M519.328 374.256L519.308 374.198C518.355 371.468 517.869 360.18 518.069 345.441C518.07 345.31 518.216 345.205 518.406 345.195L584.481 341.9C584.594 341.894 584.673 341.923 584.718 341.948C584.82 342.002 584.843 342.076 584.844 342.127L585.89 372.134C585.894 372.267 585.748 372.379 585.554 372.388H585.544C576.031 372.643 528.128 373.936 519.389 374.253L519.328 374.256ZM584.507 342.066C584.502 342.066 584.494 342.066 584.488 342.066L518.413 345.361C518.296 345.366 518.235 345.42 518.235 345.442C518.037 360.061 518.512 371.272 519.444 374.085C528.345 373.764 576.047 372.476 585.54 372.221H585.55C585.657 372.216 585.726 372.164 585.724 372.138L584.679 342.131C584.679 342.115 584.654 342.101 584.64 342.092C584.615 342.082 584.573 342.066 584.507 342.066Z" fill="white"/>
<path opacity="0.52" d="M561.453 347.056C561.486 347.814 561.851 348.414 562.266 348.395L580.63 347.577C581.046 347.558 581.355 346.929 581.322 346.17C581.288 345.411 580.924 344.811 580.508 344.83L562.144 345.648C561.729 345.667 561.418 346.297 561.453 347.056Z" fill="white"/>
<path opacity="0.52" d="M561.476 350.794C561.494 351.173 561.844 351.465 562.259 351.448L580.623 350.63C581.038 350.611 581.362 350.288 581.345 349.909C581.327 349.53 580.977 349.238 580.562 349.255L562.198 350.073C561.783 350.092 561.46 350.415 561.476 350.794Z" fill="white"/>
<path opacity="0.52" d="M561.433 353.657C561.451 354.036 561.801 354.328 562.216 354.311L580.58 353.493C580.995 353.474 581.319 353.152 581.302 352.773C581.284 352.393 580.934 352.101 580.519 352.119L562.155 352.937C561.74 352.956 561.417 353.278 561.433 353.657Z" fill="white"/>
<path d="M526.316 364.332L525.831 364.862C524.997 365.772 524.819 366.964 525.432 367.525L526.161 368.193C526.773 368.756 527.945 368.474 528.779 367.566L529.264 367.035C529.296 367.001 529.328 366.964 529.358 366.928L543.078 350.603L541.491 349.148L526.416 364.229C526.381 364.262 526.348 364.297 526.316 364.332ZM527.091 364.967C527.719 364.282 528.557 364.03 528.963 364.403C529.37 364.776 529.191 365.634 528.562 366.318C527.935 367.002 527.097 367.255 526.691 366.881C526.284 366.508 526.464 365.651 527.091 364.967Z" fill="#787878"/>
<path d="M545.61 343.048L542.791 346.122C542.591 346.341 542.502 346.64 542.553 346.932L542.814 348.432C542.888 348.86 543.243 349.184 543.675 349.22L545.192 349.351C545.488 349.377 545.778 349.264 545.979 349.045L548.797 345.971C549.223 345.507 550.004 345.754 550.071 346.38C550.229 347.877 549.754 349.456 548.633 350.678C546.606 352.887 543.49 352.828 541.365 350.878C539.241 348.928 538.911 345.827 540.938 343.617C542.059 342.394 543.59 341.784 545.094 341.813C545.722 341.826 546.035 342.584 545.61 343.048Z" fill="#787878"/>
<path d="M545.9 343.314L543.081 346.388C542.881 346.607 542.792 346.906 542.843 347.198L543.104 348.698C543.178 349.126 543.533 349.45 543.965 349.486L545.482 349.617C545.778 349.643 546.068 349.53 546.269 349.311L549.087 346.237C549.513 345.773 550.294 346.02 550.361 346.646C550.519 348.143 550.044 349.722 548.923 350.943C546.896 353.153 543.78 353.094 541.655 351.144C539.531 349.194 539.201 346.093 541.228 343.883C542.349 342.66 543.88 342.05 545.384 342.079C546.01 342.092 546.325 342.85 545.9 343.314Z" fill="#C7C7C9"/>
<path d="M526.548 364.544L526.063 365.074C525.229 365.984 525.051 367.176 525.664 367.737L526.393 368.405C527.005 368.968 528.177 368.686 529.011 367.778L529.496 367.248C529.528 367.213 529.56 367.176 529.59 367.14L543.31 350.815L541.723 349.36L526.648 364.441C526.613 364.474 526.58 364.509 526.548 364.544ZM527.323 365.179C527.951 364.495 528.789 364.242 529.195 364.615C529.602 364.989 529.423 365.846 528.794 366.53C528.167 367.214 527.329 367.467 526.923 367.094C526.517 366.72 526.696 365.863 527.323 365.179Z" fill="#C7C7C9"/>
<path d="M540.754 358.158L539.652 359.119L529.655 347.42L530.525 346.662L540.754 358.158Z" fill="#545454"/>
<path d="M538.529 355.042L536.867 356.491C536.558 356.762 536.517 357.229 536.779 357.549L545.203 367.867C545.839 368.645 546.993 368.743 547.751 368.082L548.533 367.4C549.291 366.739 549.35 365.581 548.665 364.845L539.589 355.097C539.307 354.795 538.838 354.771 538.529 355.042Z" fill="#AAA4EC"/>
<path d="M546.846 367.326L546.426 367.692L537.301 357.226L537.721 356.86L546.846 367.326Z" fill="#545454"/>
<path d="M547.611 366.659L547.192 367.027L538.065 356.561L538.484 356.195L547.611 366.659Z" fill="#545454"/>
<path d="M548.374 365.994L547.955 366.36L538.828 355.894L539.248 355.528L548.374 365.994Z" fill="#545454"/>
<path d="M527.019 342.969L526.472 343.447C526.327 343.574 526.276 343.765 526.347 343.909L527.319 345.833C527.337 345.87 527.365 345.902 527.398 345.929L529.591 347.611C529.722 347.711 529.927 347.689 530.076 347.559L530.654 347.053C530.807 346.921 530.855 346.716 530.767 346.574L529.349 344.22C529.328 344.187 529.301 344.158 529.269 344.134L527.493 342.908C527.362 342.818 527.165 342.843 527.019 342.969Z" fill="#545454"/>
<path d="M566.501 223.891L668.172 223.551C669.208 223.542 670.049 224.486 670.04 225.645L669.85 253.606C669.841 254.773 668.979 255.703 667.938 255.668L566.757 254.162C565.762 254.13 564.968 253.226 564.957 252.111L564.659 225.994C564.644 224.843 565.472 223.897 566.501 223.891Z" fill="#E4E4E2"/>
<path d="M667.995 253.903L566.805 252.397C566.647 252.393 566.524 252.256 566.522 252.087L566.223 225.97C566.223 225.888 566.249 225.812 566.303 225.751C566.36 225.687 566.433 225.654 566.515 225.652L668.186 225.312C668.27 225.312 668.344 225.345 668.4 225.41C668.454 225.47 668.482 225.546 668.48 225.628L668.29 253.589C668.287 253.764 668.156 253.903 667.995 253.903ZM566.812 252.157L667.998 253.663C668.019 253.663 668.045 253.632 668.045 253.591L668.236 225.63C668.236 225.606 668.229 225.589 668.216 225.574C668.205 225.561 668.194 225.559 668.184 225.559L566.513 225.899C566.505 225.899 566.496 225.901 566.483 225.916C566.47 225.931 566.463 225.948 566.463 225.972L566.762 252.09C566.764 252.124 566.786 252.155 566.812 252.157Z" fill="white"/>
<path opacity="0.52" d="M573.239 229.466C573.239 230.369 573.673 231.1 574.207 231.1H661.93C662.464 231.1 662.899 230.369 662.899 229.466C662.899 228.564 662.464 227.833 661.93 227.833H574.207C573.671 227.835 573.239 228.564 573.239 229.466Z" fill="white"/>
<path opacity="0.52" d="M573.572 235.055H617.596C617.827 235.055 618.018 235.494 618.018 236.035C618.018 236.576 617.829 237.015 617.596 237.015H573.572C573.341 237.015 573.151 236.576 573.151 236.035C573.153 235.494 573.341 235.055 573.572 235.055Z" fill="white"/>
<path opacity="0.52" d="M573.153 240.228C573.153 240.767 573.341 241.206 573.572 241.206H617.598C617.829 241.206 618.017 240.769 618.017 240.228V239.625C618.017 239.075 617.823 238.634 617.587 238.647L573.561 239.25C573.334 239.263 573.153 239.696 573.153 240.228Z" fill="white"/>
<path opacity="0.52" d="M573.572 242.823H617.596C617.827 242.823 618.018 243.262 618.018 243.803C618.018 244.344 617.829 244.783 617.596 244.783H573.572C573.341 244.783 573.151 244.344 573.151 243.803C573.153 243.26 573.341 242.823 573.572 242.823Z" fill="white"/>
<path opacity="0.52" d="M573.153 247.994C573.153 248.533 573.341 248.972 573.572 248.972H617.598C617.829 248.972 618.017 248.535 618.017 247.994V247.39C618.017 246.841 617.823 246.399 617.587 246.412L573.561 247.016C573.334 247.031 573.153 247.464 573.153 247.994Z" fill="white"/>
<path d="M644.924 222.616L644.911 215.266H638.224L638.237 222.173C638.237 225.875 637.047 229.479 634.841 232.452L626.032 244.333C625.572 244.954 625.323 245.707 625.323 246.479V246.483C625.323 248.472 626.934 250.086 628.924 250.086H654.309C656.296 250.086 657.91 248.474 657.91 246.483C657.91 245.707 657.659 244.952 657.196 244.331L648.069 232.089C646.027 229.354 644.924 226.03 644.924 222.616Z" fill="url(#paint10_linear)"/>
<path opacity="0.49" d="M628.925 249.188C627.437 249.188 626.224 247.976 626.224 246.486C626.224 245.906 626.412 245.332 626.756 244.872L635.565 232.991C637.868 229.884 639.138 226.043 639.138 222.175L639.127 216.169H644.015L644.026 222.618C644.026 226.199 645.204 229.756 647.345 232.627L656.472 244.869C656.818 245.332 657.009 245.906 657.009 246.486C657.009 247.974 655.798 249.188 654.307 249.188H628.925V249.188Z" fill="white"/>
<path d="M645.113 216.588H638.036C637.465 216.588 637 216.125 637 215.552C637 215.002 637.431 214.548 637.98 214.518L645.057 214.137C645.649 214.104 646.147 214.578 646.147 215.171V215.552C646.147 216.125 645.684 216.588 645.113 216.588Z" fill="#AAA4EC"/>
<path d="M626.756 244.872C626.414 245.335 626.224 245.906 626.224 246.486C626.224 247.974 627.435 249.188 628.925 249.188H654.31C655.798 249.188 657.011 247.977 657.011 246.486C657.011 245.908 656.821 245.335 656.475 244.87L652.398 239.402H630.811L626.756 244.872Z" fill="#AAA4EC"/>
<path d="M660.988 250.086C659.58 250.086 658.438 248.944 658.438 247.535V229.282H664.094L663.536 247.535C663.536 248.944 662.396 250.086 660.988 250.086Z" fill="url(#paint11_linear)"/>
<path opacity="0.49" d="M660.988 249.489C659.911 249.489 659.035 248.613 659.035 247.535V229.282H663.478L662.939 247.526V247.535C662.939 248.613 662.063 249.489 660.988 249.489Z" fill="white"/>
<path d="M664.092 229.722H658.36C657.898 229.722 657.521 229.345 657.521 228.882C657.521 228.436 657.869 228.069 658.315 228.045L664.046 227.738C664.526 227.712 664.931 228.095 664.931 228.575V228.882C664.931 229.345 664.555 229.722 664.092 229.722Z" fill="#AAA4EC"/>
<path d="M659.035 237.612V247.535C659.035 248.612 659.911 249.489 660.988 249.489C662.065 249.489 662.941 248.612 662.941 247.535V247.526L663.233 237.612H659.035Z" fill="#AAA4EC"/>
<path d="M653.214 250.268C651.806 250.268 650.664 249.125 650.664 247.717V229.464H656.32L655.762 247.717C655.764 249.125 654.624 250.268 653.214 250.268Z" fill="url(#paint12_linear)"/>
<path opacity="0.49" d="M653.214 249.67C652.137 249.67 651.261 248.794 651.261 247.717V229.464H655.703L655.165 247.708V247.717C655.167 248.794 654.291 249.67 653.214 249.67Z" fill="white"/>
<path d="M656.319 229.903H650.587C650.124 229.903 649.748 229.527 649.748 229.064C649.748 228.618 650.096 228.25 650.542 228.226L656.273 227.919C656.753 227.893 657.158 228.276 657.158 228.757V229.066C657.158 229.527 656.781 229.903 656.319 229.903Z" fill="#AAA4EC"/>
<path d="M651.262 237.794V247.717C651.262 248.794 652.138 249.67 653.215 249.67C654.293 249.67 655.168 248.794 655.168 247.717V247.708L655.46 237.794H651.262Z" fill="#AAA4EC"/>
<path d="M603.721 365.024L665.944 361.855C667.164 361.792 668.189 362.45 668.22 363.316L669.456 397.2C669.487 398.071 668.504 398.814 667.275 398.842C656.011 399.105 606.002 400.281 603.8 400.446C601.624 400.607 601.596 373.344 601.622 366.616C601.624 365.784 602.549 365.083 603.721 365.024Z" fill="#E4E4E2"/>
<path opacity="0.67" d="M604.883 399.13L604.86 399.052C603.941 395.962 603.388 383.215 603.453 366.578C603.453 366.424 603.6 366.301 603.794 366.29L666.017 363.121C666.132 363.116 666.214 363.152 666.262 363.181C666.363 363.247 666.387 363.33 666.389 363.389L667.625 397.275C667.63 397.432 667.481 397.564 667.284 397.573H667.273C658.323 397.782 613.258 398.841 604.964 399.126L604.883 399.13ZM666.039 363.332C666.036 363.332 666.03 363.332 666.025 363.332L603.804 366.502C603.719 366.505 603.662 366.552 603.662 366.579C603.598 383.061 604.136 395.711 605.038 398.915C613.542 398.624 658.347 397.573 667.266 397.363H667.275C667.358 397.36 667.412 397.313 667.412 397.283L666.176 363.398C666.176 363.393 666.176 363.379 666.145 363.36C666.127 363.346 666.093 363.332 666.039 363.332Z" fill="white"/>
<path opacity="0.52" d="M644.363 368.762C644.401 369.619 644.749 370.3 645.141 370.28L662.436 369.51C662.827 369.492 663.113 368.784 663.075 367.927C663.037 367.069 662.689 366.389 662.297 366.408L645.002 367.179C644.611 367.196 644.325 367.904 644.363 368.762Z" fill="white"/>
<path opacity="0.52" d="M644.417 372.981C644.436 373.409 644.769 373.743 645.16 373.726L662.455 372.955C662.847 372.937 663.148 372.576 663.129 372.148C663.11 371.72 662.777 371.386 662.386 371.403L645.091 372.174C644.701 372.191 644.398 372.553 644.417 372.981Z" fill="white"/>
<path opacity="0.52" d="M644.402 376.213C644.421 376.64 644.753 376.975 645.144 376.957L662.44 376.187C662.831 376.169 663.132 375.807 663.113 375.38C663.094 374.952 662.762 374.617 662.37 374.635L645.075 375.406C644.684 375.423 644.383 375.785 644.402 376.213Z" fill="white"/>
<path d="M632.282 394.791C626.195 395.635 619.906 395.643 613.393 394.73C612.598 394.62 612.084 393.835 612.3 393.063L612.664 391.76C612.778 391.353 613.133 391.06 613.554 391.029C619.954 390.541 626.206 390.323 632.035 390.877C632.428 390.915 632.769 391.164 632.92 391.528L633.439 392.779C633.808 393.667 633.235 394.659 632.282 394.791Z" fill="#605B97"/>
<path d="M622.883 368.831L624.64 377.662C624.663 377.775 624.749 377.863 624.862 377.886C625.12 377.939 625.615 377.974 626.166 377.653C626.271 377.591 626.328 377.47 626.304 377.35L624.55 368.455L622.883 368.831Z" fill="#333333"/>
<path d="M621.253 363.077L623.974 376.751C624.009 376.924 624.144 377.061 624.317 377.098C624.717 377.181 625.484 377.234 626.336 376.739C626.5 376.644 626.587 376.455 626.55 376.27L623.834 362.495L621.253 363.077Z" fill="#787878"/>
<path d="M620.069 359.801L623.303 375.624C623.349 375.857 623.529 376.043 623.763 376.091C624.302 376.204 625.337 376.277 626.483 375.608C626.704 375.48 626.82 375.225 626.772 374.974L623.547 359.018L620.069 359.801Z" fill="#7C77B8"/>
<path d="M619.76 359.75L619.864 359.937C619.933 360.062 620.077 360.128 620.217 360.1L623.543 359.419C623.695 359.388 623.806 359.253 623.806 359.097V358.82C623.806 358.609 623.611 358.453 623.405 358.5L619.975 359.271C619.762 359.317 619.655 359.558 619.76 359.75Z" fill="#6863A3"/>
<path d="M620.719 362.641L624.202 361.936L624.471 361.959C624.599 361.969 624.711 362.049 624.765 362.165C624.765 362.322 624.701 362.473 624.587 362.582L624.37 362.79L620.889 363.495L620.432 363.32C620.366 363.296 620.312 363.247 620.281 363.183C620.212 363.044 620.267 362.875 620.404 362.804L620.719 362.641Z" fill="#6863A3"/>
<path d="M621.068 369.499L620.606 365.575C620.572 365.287 620.767 365.022 621.053 364.969L624.749 364.284C625.021 364.234 625.281 364.414 625.329 364.686L626.721 372.629C626.721 372.629 624.46 373.585 621.591 373.585C621.591 373.585 621.07 372.454 620.288 372.541C619.505 372.627 617.071 373.672 617.505 378.542C617.94 383.412 621.418 382.804 621.418 382.804L622.897 389.502C622.897 389.502 615.374 388.194 614.637 379.846C614.181 374.693 617.341 371.406 618.584 370.324C618.875 370.071 619.226 369.898 619.602 369.815L621.068 369.499Z" fill="#AAA4EC"/>
<path d="M617.457 390.818L618.799 385.768C618.984 385.073 619.611 384.59 620.33 384.59H621.121C621.832 384.59 622.454 385.073 622.629 385.764L623.908 390.823C623.989 391.147 623.745 391.46 623.411 391.46H617.954C617.617 391.462 617.371 391.144 617.457 390.818Z" fill="#605B97"/>
<path d="M621.983 386.679C621.983 387.304 621.477 387.81 620.852 387.81C620.227 387.81 619.721 387.304 619.721 386.679C619.721 386.053 620.227 385.548 620.852 385.548C621.477 385.548 621.983 386.053 621.983 386.679Z" fill="#AAA4EC"/>
<path d="M631.671 382.241C630.654 381.412 628.701 380.849 626.458 380.849C624.214 380.849 622.261 381.41 621.245 382.241H620.502V383.545C620.502 385.035 623.168 386.242 626.458 386.242C629.747 386.242 632.413 385.035 632.413 383.545V382.241H631.671Z" fill="#6863A2"/>
<path d="M626.462 384.938C629.751 384.938 632.417 383.731 632.417 382.241C632.417 380.752 629.751 379.545 626.462 379.545C623.172 379.545 620.506 380.752 620.506 382.241C620.506 383.731 623.172 384.938 626.462 384.938Z" fill="#AAA4EC"/>
<path d="M626.461 384.242C629.222 384.242 631.46 383.327 631.46 382.198C631.46 381.069 629.222 380.154 626.461 380.154C623.699 380.154 621.461 381.069 621.461 382.198C621.461 383.327 623.699 384.242 626.461 384.242Z" fill="#DCDAF3"/>
<path d="M626.461 380.502C629.078 380.502 631.225 381.325 631.441 382.373C631.453 382.316 631.46 382.257 631.46 382.2C631.46 381.07 629.222 380.156 626.461 380.156C623.699 380.156 621.461 381.07 621.461 382.2C621.461 382.259 621.468 382.316 621.48 382.373C621.696 381.325 623.843 380.502 626.461 380.502Z" fill="#C3BFEB"/>
<path d="M623.33 368.282C623.33 369.387 622.376 370.282 621.2 370.282C620.025 370.282 619.071 369.387 619.071 368.282C619.071 367.177 620.025 366.281 621.2 366.281C622.376 366.281 623.33 367.177 623.33 368.282Z" fill="#6863A3"/>
<path d="M621.198 369.848C621.991 369.848 622.634 369.205 622.634 368.412C622.634 367.619 621.991 366.976 621.198 366.976C620.406 366.976 619.763 367.619 619.763 368.412C619.763 369.205 620.406 369.848 621.198 369.848Z" fill="#AAA4EC"/>
<path d="M628.813 392.805C628.712 392.805 628.624 392.734 628.605 392.631C628.584 392.517 628.66 392.406 628.774 392.385C629.116 392.323 629.455 392.254 629.782 392.178C629.897 392.153 630.009 392.223 630.035 392.337C630.061 392.451 629.99 392.564 629.876 392.59C629.543 392.666 629.197 392.737 628.851 392.801C628.839 392.803 628.826 392.805 628.813 392.805Z" fill="#C9C5FC"/>
<path d="M623.242 393.276C617.915 393.276 613.464 392.16 613.407 392.147C613.294 392.117 613.225 392.003 613.255 391.89C613.284 391.778 613.398 391.708 613.511 391.738C613.582 391.757 620.766 393.553 627.768 392.55C627.884 392.531 627.989 392.614 628.007 392.728C628.024 392.845 627.943 392.95 627.828 392.967C626.282 393.189 624.728 393.276 623.242 393.276Z" fill="#C9C5FC"/>
<path d="M626.055 372.108C625.954 372.108 625.864 372.035 625.847 371.931L625.741 371.299C625.722 371.185 625.8 371.076 625.914 371.056C626.029 371.037 626.138 371.115 626.157 371.23L626.262 371.862C626.282 371.976 626.204 372.085 626.089 372.104C626.077 372.108 626.065 372.108 626.055 372.108Z" fill="#C9C5FC"/>
<path d="M625.775 370.438C625.675 370.438 625.585 370.365 625.568 370.262L624.674 364.944C624.67 364.925 624.653 364.912 624.632 364.913L624.263 364.963C624.147 364.979 624.042 364.898 624.026 364.783C624.01 364.667 624.092 364.562 624.206 364.546L624.575 364.496C624.823 364.461 625.048 364.629 625.09 364.875L625.983 370.192C626.002 370.307 625.924 370.416 625.81 370.435C625.798 370.438 625.786 370.438 625.775 370.438Z" fill="#C9C5FC"/>
</g>
<path d="M465.574 417.05C465.574 420.368 462.833 423.132 459.442 423.224C456.038 423.316 453.27 420.684 453.27 417.344C453.27 414.004 456.038 411.239 459.442 411.169C462.833 411.098 465.574 413.731 465.574 417.05Z" fill="white"/>
<path d="M490.147 416.462C490.147 419.736 487.477 422.464 484.174 422.553C480.858 422.643 478.163 420.044 478.163 416.748C478.163 413.453 480.859 410.724 484.174 410.655C487.477 410.587 490.147 413.187 490.147 416.462Z" fill="white"/>
<path d="M514.084 415.889C514.084 419.122 511.483 421.813 508.265 421.9C505.034 421.988 502.408 419.421 502.408 416.169C502.408 412.915 505.034 410.223 508.265 410.157C511.484 410.089 514.084 412.657 514.084 415.889Z" fill="white"/>
<path d="M551.689 609.344C551.34 609.344 551.045 609.078 551.014 608.726L538.688 475.471C538.654 475.097 538.929 474.766 539.302 474.73C539.674 474.699 540.007 474.971 540.043 475.345L551.012 593.929V472.46C551.012 472.083 551.316 471.779 551.692 471.779C552.068 471.779 552.372 472.083 552.372 472.46V608.663C552.372 609.026 552.086 609.326 551.723 609.344C551.71 609.344 551.698 609.344 551.689 609.344Z" fill="#B7C0CE"/>
<path d="M689.129 487.037L553.914 472.216L294.141 484.029L430.193 500.327L689.129 487.037Z" fill="#D8DEE8"/>
<path d="M430.193 500.327L689.128 487.036V493.457L430.193 506.745L294.141 490.447V484.029L430.193 500.327Z" fill="#B7C0CE"/>
<path d="M431.112 655.821C431.103 655.821 431.094 655.821 431.085 655.821C430.72 655.807 430.432 655.505 430.432 655.14V505.184C430.432 504.808 430.736 504.504 431.112 504.504C431.488 504.504 431.792 504.808 431.792 505.184V637.714L442.154 505.13C442.184 504.756 442.508 504.477 442.886 504.504C443.26 504.533 443.539 504.86 443.512 505.236L431.792 655.192C431.762 655.548 431.465 655.821 431.112 655.821Z" fill="#B7C0CE"/>
<path d="M295.627 629.181C295.618 629.181 295.609 629.181 295.6 629.181C295.235 629.167 294.947 628.865 294.947 628.5V490.094C294.947 489.717 295.251 489.413 295.627 489.413C296.003 489.413 296.307 489.717 296.307 490.094V611.148L305.812 490.042C305.841 489.668 306.175 489.386 306.544 489.418C306.918 489.447 307.197 489.774 307.17 490.15L296.307 628.559C296.276 628.91 295.981 629.181 295.627 629.181Z" fill="#B7C0CE"/>
<path d="M687.846 629.181C687.495 629.181 687.198 628.91 687.169 628.557L675.633 490.147C675.601 489.774 675.88 489.445 676.254 489.413C676.63 489.382 676.957 489.661 676.988 490.035L687.166 612.153V493.454C687.166 493.078 687.47 492.774 687.846 492.774C688.222 492.774 688.526 493.078 688.526 493.454V628.5C688.526 628.865 688.238 629.165 687.876 629.181C687.864 629.181 687.855 629.181 687.846 629.181Z" fill="#B7C0CE"/>
<path d="M391.241 626.617C391.016 625.383 387.028 624.263 385.053 625.919C384.074 626.741 383.398 628.406 383.966 629.158C384.173 629.431 383.326 629.913 384.137 629.922C386.823 629.954 391.464 627.845 391.241 626.617Z" fill="#333333"/>
<path d="M386.882 626.624L382.746 626.831C384.18 624.225 382.455 617.134 382.455 617.134L386.923 617.264C386.923 617.264 386.812 619.323 386.54 622.38C386.445 623.428 386.619 625.005 386.882 626.624Z" fill="#FEB3B2"/>
<path d="M387.425 626.563C387.425 626.563 382.486 625.426 381.953 626.406C381.419 627.386 381.005 630.01 384.137 629.924C387.272 629.839 387.704 627.392 387.425 626.563Z" fill="#333333"/>
<path d="M416.433 631.65C416.039 630.458 411.932 629.909 410.209 631.823C409.354 632.774 408.917 634.518 409.586 635.182C409.829 635.425 409.059 636.02 409.863 635.914C412.527 635.572 416.825 632.835 416.433 631.65Z" fill="#333333"/>
<path d="M411.581 632.799L407.517 633.596C408.562 630.81 405.839 624.04 405.839 624.04L410.28 623.529C410.28 623.529 410.467 625.581 410.636 628.647C410.692 629.697 411.088 631.233 411.581 632.799Z" fill="#FEB3B2"/>
<path d="M412.645 632.13C412.645 632.13 407.597 631.695 407.205 632.74C406.813 633.786 406.77 636.442 409.86 635.919C412.952 635.396 413.037 632.914 412.645 632.13Z" fill="#333333"/>
<path d="M391.048 508.363L408.492 467.481C409.364 465.438 408.193 463.102 406.036 462.577L374.081 454.814C372.354 454.395 370.579 455.301 369.908 456.948L353.862 496.239C353.063 498.197 354.117 500.415 356.137 501.035L386.693 510.388C388.447 510.924 390.327 510.052 391.048 508.363Z" fill="#333333"/>
<path d="M390.258 506.396L406.552 468.211C407.367 466.303 406.273 464.12 404.258 463.631L374.408 456.38C372.796 455.988 371.139 456.835 370.51 458.371L355.525 495.072C354.78 496.899 355.761 498.974 357.648 499.55L386.189 508.286C387.831 508.791 389.585 507.973 390.258 506.396Z" fill="white"/>
<path d="M400.319 495.171L400.842 490.355L403.616 485.063C403.994 484.342 404.19 483.54 404.19 482.727V477.474L400.839 485.223C400.839 485.223 398.642 483.234 397.804 482.815C396.966 482.396 397.072 484.072 397.7 484.701C398.329 485.329 397.387 490.461 398.013 490.983L397.804 494.126L400.319 495.171Z" fill="#FEB3B2"/>
<path d="M373.73 464.488C371.125 458.115 365.534 454.45 362.633 452.548C355.772 448.052 351.381 448.872 335.626 446.475C314.63 443.279 312.115 440.251 305.06 442.704C295.789 445.928 290.948 454.346 288.73 458.203C277.543 477.65 290.622 487.535 287.264 526.272C285.893 542.092 282.378 555.841 290.824 563.973C292.603 565.685 294.592 566.579 298.57 568.372C314.349 575.475 328.496 574.249 337.094 573.398C346.553 572.461 351.334 571.925 353.842 568.582C357.848 563.241 353.725 556.453 353.005 544.706C352.489 536.272 354.405 529.588 358.238 516.22C367.148 485.145 378.72 476.697 373.73 464.488Z" fill="#787878"/>
<path d="M338.585 435.011C339.539 431.605 337.869 428.449 337.502 427.769C335.959 424.923 335.565 424.534 334.829 424.04L333.806 423.41C333.806 423.41 333.748 423.385 333.685 423.365C333.03 423.13 330.791 423.063 330.339 423.16C328.891 423.468 327.348 429.37 327.79 437.712C327.729 438.03 327.673 438.349 327.616 438.674C327.389 439.992 327.206 441.282 327.067 442.544C326.934 443.751 325.22 443.724 324.009 443.646C319.089 443.332 316.682 443.751 316.472 444.484C316.08 445.858 321.915 450.347 329.12 451.359C338.792 451.431 346.657 450.401 345.813 448.876C345.437 448.2 337.945 446.241 335.837 444.299C333.908 442.521 334.065 440.685 333.905 439.372C334.489 439.07 337.88 437.52 338.585 435.011Z" fill="#FEB3B2"/>
<path d="M336.806 421.04C336.797 423.624 335.581 426.386 334.959 426.827C334.878 426.883 334.428 427.242 334.022 427.85C333.966 427.933 333.919 428.03 333.876 428.156C333.311 429.785 335.898 431.702 335.398 432.429C335.036 432.959 333.277 432.252 333.068 432.709C332.87 433.139 334.333 434.029 334.108 434.545C333.939 434.934 333.038 434.579 332.471 435.173C332.187 435.471 332.271 435.705 331.971 436.613C331.802 437.126 331.564 437.687 331.381 437.998C330.487 439.516 327.961 440.071 327.472 439.462C327.337 439.293 327.454 439.152 327.314 438.584C327.314 438.584 327.186 438.057 326.819 437.448C326.297 436.579 325.033 435.957 323.759 435.04C321.399 433.34 320.757 431.891 320.566 431.402C320.498 431.229 320.456 431.096 320.424 431.001C319.812 429.096 319.807 426.298 320.663 424.577C322.097 421.693 325.333 423.063 327.979 420.206C331.034 416.911 329.215 412.408 330.872 411.91C332.707 411.36 336.821 416.262 336.806 421.04Z" fill="#4B3E62"/>
<path d="M334.47 431.824C333.838 430.954 332.725 431.772 332.719 432.898C332.712 434.025 333.802 435.196 334.86 434.973C335.918 434.75 335.324 432.995 334.47 431.824Z" fill="#F9A8A7"/>
<path d="M333.957 429.94L335.425 431.853C335.425 431.853 337.008 434.195 337.934 432.911C338.688 431.864 338.884 431.886 338.931 431.929C338.94 431.938 338.943 431.95 338.945 431.95C338.958 431.945 338.835 431.427 338.722 430.972C339.114 431.533 339.652 432.445 339.979 433.671C340.296 434.86 340.636 436.135 339.963 437.36C339.924 437.43 339.184 438.735 337.803 439.05C337.803 439.05 337.261 439.174 334.966 438.771C334.966 438.771 337.475 436.951 337.513 436.518C337.616 435.342 335.986 434.707 334.775 432.294C334.311 431.364 334.079 430.519 333.957 429.94Z" fill="#4B3E62"/>
<path opacity="0.3" d="M328.927 562.297C331.711 556.753 324.89 549.384 329.346 540.932C333.129 533.755 340.004 535.364 343.163 528.784C346.98 520.838 338.678 514.9 338.977 502.813C339.333 488.362 351.76 473.897 359.076 475.165C363.81 475.985 364.418 483.05 367.746 490.781C364.8 497.244 361.357 505.342 358.239 516.216C354.404 529.583 352.488 536.267 353.006 544.701C353.726 556.449 357.849 563.236 353.843 568.577C351.335 571.92 346.554 572.459 337.095 573.394C328.497 574.245 314.352 575.471 298.571 568.368C296.574 567.469 295.079 566.795 293.858 566.131C318.509 569.839 326.721 566.694 328.927 562.297Z" fill="#545454"/>
<path d="M401.26 494.227C399.725 493.565 398.189 492.901 396.656 492.238C394.062 494.894 390.751 497.476 387.966 496.635C383.816 495.385 384.854 487.749 379.801 474.329C374.077 459.126 367.581 455.218 364.309 453.803C362.48 453.015 361.219 452.49 359.704 452.861C352.726 454.569 350.418 472.759 352.377 486.372C353.48 494.043 355.644 509.079 367.975 516.218C369.727 517.232 379.369 522.814 388.912 518.417C397.061 514.664 402.098 505.027 401.26 494.227Z" fill="#787878"/>
<path d="M389.585 617.699C387.033 617.983 384.48 618.267 381.929 618.55C378.481 614.728 373.336 608.064 370.587 598.695C365.32 580.746 373.566 568.964 368.035 564.371C361.658 559.077 349.06 573.382 321.25 577.421C312.299 578.721 292.43 581.607 284.389 570.897C281.13 566.554 279.257 559.237 281.837 553.027C286.463 541.894 301.694 543.23 351.872 533.453C371.201 529.687 374.257 528.455 378.848 530.646C401.562 541.493 392.091 602.825 389.585 617.699Z" fill="#333333"/>
<path d="M412.365 624.921C409.813 625.205 407.26 625.489 404.708 625.773C401.261 621.95 396.116 615.287 393.366 605.918C388.099 587.968 396.345 576.187 390.815 571.593C384.438 566.3 371.839 580.604 344.03 584.643C335.079 585.943 315.21 588.829 307.169 578.12C303.91 573.776 302.037 566.46 304.617 560.249C309.242 549.116 324.473 550.452 374.652 540.675C393.981 536.909 397.037 535.677 401.628 537.869C424.339 548.713 414.868 610.044 412.365 624.921Z" fill="#545454"/>
<path d="M325.007 673C348.381 673 367.329 665.263 367.329 655.72C367.329 646.176 348.381 638.439 325.007 638.439C301.634 638.439 282.685 646.176 282.685 655.72C282.685 665.263 301.634 673 325.007 673Z" fill="#333333"/>
<path d="M282.685 653.692C282.685 662.7 301.634 670.004 325.007 670.004C348.381 670.004 367.329 662.7 367.329 653.692C367.329 644.684 348.381 629.944 325.007 629.944C301.634 629.944 282.685 644.684 282.685 653.692Z" fill="#C7C7C9"/>
<path opacity="0.3" d="M282.685 653.692C282.685 644.684 301.634 629.944 325.007 629.944C335.8 629.944 345.643 633.089 353.118 637.36C353.641 638.457 353.886 639.547 353.787 640.581C353.301 645.65 345.039 648.765 340.295 649.793C328.351 652.381 322.517 645.235 312.67 645.508C306.581 645.677 298.144 648.736 288.137 661.696C284.671 659.33 282.685 656.602 282.685 653.692Z" fill="white"/>
<path d="M322.69 638.126C324.381 638.547 325.959 638.532 327.443 638.153C328.79 637.811 329.713 636.565 329.713 635.175V587.434H320.303V635.119C320.303 636.551 321.301 637.779 322.69 638.126Z" fill="white"/>
<path opacity="0.65" d="M322.69 638.126C324.381 638.547 325.959 638.532 327.443 638.153C328.79 637.811 329.713 636.565 329.713 635.175V587.434H320.303V635.119C320.303 636.551 321.301 637.779 322.69 638.126Z" fill="#A0A0A0"/>
<path d="M374.734 567.342L360.356 558.25C359.757 554.853 352.982 519.324 325.469 508.167C314.28 503.63 302.24 504.168 295.633 504.463C282.443 505.053 273.035 505.472 268.509 511.766C262.697 519.849 272.445 527.179 270.425 550.298C269.603 559.726 267.509 563.914 270.116 570.16C273.24 577.642 280.481 581.789 286.111 584.125C292.841 588.035 304.56 593.606 320.038 594.962C346.109 597.249 365.574 586.06 372.266 581.78C375.243 580.84 377.479 578.365 378.111 575.308C378.755 572.208 377.409 569.034 374.734 567.342Z" fill="#C7C7C9"/>
<path opacity="0.26" d="M368.122 573.817C367.591 570.62 358.685 573.269 350.259 567.009C337.665 557.649 344.202 541.797 333.247 526.587C323.193 512.629 302.954 505.527 296.669 510.843C288.306 517.921 308.775 544.394 296.669 561.476C290.787 569.775 281.83 569.374 281.783 574.24C281.711 581.931 304.008 590.797 325.165 590.408C347.91 589.993 368.967 578.892 368.122 573.817Z" fill="white"/>
<path d="M634.359 489.602L541.453 488.911V490.956C541.453 491.513 541.858 491.983 542.408 492.069L568.679 496.099C568.99 496.146 569.308 496.16 569.623 496.137L633.352 491.542C633.922 491.501 634.361 491.028 634.361 490.456V489.602H634.359Z" fill="#333333"/>
<path d="M600.643 486.22L542.412 489.964C541.369 490.031 540.523 489.319 540.523 488.373V450.503C540.523 449.557 541.369 448.791 542.412 448.791H600.643C601.501 448.791 602.194 449.483 602.194 450.339V484.573C602.194 485.427 601.501 486.165 600.643 486.22Z" fill="#333333"/>
<path d="M601.572 486.219L543.341 489.963C542.298 490.03 541.452 489.319 541.452 488.372V450.503C541.452 449.556 542.298 448.791 543.341 448.791H601.572C602.43 448.791 603.123 449.482 603.123 450.338V484.572C603.125 485.426 602.43 486.165 601.572 486.219Z" fill="#333333"/>
<path d="M599.758 483.806L545.522 487.059C544.673 487.111 543.984 486.525 543.984 485.755V452.6C543.984 451.827 544.673 451.201 545.522 451.197L599.758 450.992C600.465 450.989 601.039 451.557 601.039 452.26V482.457C601.037 483.16 600.465 483.764 599.758 483.806Z" fill="#EFF2F6"/>
<path d="M574.515 449.827C574.515 450.178 574.215 450.464 573.843 450.467C573.472 450.467 573.172 450.183 573.172 449.829C573.172 449.475 573.474 449.189 573.843 449.189C574.215 449.189 574.515 449.475 574.515 449.827Z" fill="white"/>
<path opacity="0.48" d="M587.779 475.852C583.266 473.653 579.72 476.44 576.295 473.69C574.219 472.023 575.239 470.779 572.683 468.29C569.855 465.53 568.013 466.458 565.169 463.976C561.575 460.838 563.372 458.394 560.276 456.141C556.52 453.406 552.469 455.938 548.893 453.316C547.351 452.185 546.504 450.541 546.062 448.793H542.563C541.951 448.793 541.453 449.243 541.453 449.798V489.08C541.453 489.634 541.951 490.053 542.563 490.015L602.213 486.181C602.505 486.163 602.764 486.007 602.931 485.782C598.565 485.638 595.883 484.311 594.167 482.941C590.814 480.258 591.395 477.614 587.779 475.852Z" fill="white"/>
<path d="M603.892 486.115L541.453 490.055L568.679 494.232C568.99 494.279 569.308 494.292 569.623 494.27L634.361 489.602L604.888 486.142C604.557 486.102 604.224 486.093 603.892 486.115Z" fill="#787878"/>
<path opacity="0.47" d="M550.563 490.089L602.545 486.76L618.634 488.634L567.098 492.193L550.563 490.089Z" fill="#E4E4E2"/>
<path d="M615.719 609.233C615.719 609.233 602.062 610.182 601.862 611.074C601.661 611.966 611.132 615.414 614.44 615.543C617.75 615.671 620.47 614.694 620.171 613.29C619.871 611.887 618.714 608.361 618.714 608.361L615.719 609.233Z" fill="#333333"/>
<path d="M615.072 603.162L614.829 609.609C614.829 609.609 616.907 610.783 618.556 610.109L620.389 603.311L615.072 603.162Z" fill="#FEB3B2"/>
<path d="M577.525 606.631C577.525 606.631 563.868 607.58 563.667 608.472C563.467 609.364 572.938 612.813 576.246 612.941C579.556 613.07 582.278 612.092 581.979 610.688C581.679 609.285 580.522 605.76 580.522 605.76L577.525 606.631Z" fill="#333333"/>
<path d="M576.879 600.563L576.635 607.01C576.635 607.01 578.714 608.183 580.362 607.51L582.195 600.711L576.879 600.563Z" fill="#FEB3B2"/>
<path d="M613.623 604.073C616.174 604.356 618.728 604.64 621.279 604.924C624.727 601.101 629.872 594.438 632.621 585.069C637.922 567.005 630.246 553.986 635.173 550.745C642.149 546.158 657.267 572.56 681.532 571.882C691.489 571.602 704.484 566.725 709.479 556.102C710.233 554.498 713.937 546.102 710.33 538.231C706.605 530.104 688.132 526.569 651.333 519.827C635.537 516.932 627.562 515.49 624.357 517.02C601.646 527.867 611.117 589.198 613.623 604.073Z" fill="#333333"/>
<path d="M574.657 604.183C577.297 604.642 579.936 605.102 582.577 605.561C585.783 600.838 590.636 593.435 596.061 584.042C607.371 564.464 607.164 560.485 612.393 557.965C623.456 552.63 631.816 567.041 659.178 571.014C668.128 572.314 687.998 575.2 696.039 564.491C699.297 560.147 701.171 552.831 698.59 546.62C693.965 535.487 678.734 536.823 628.556 527.047C608.988 523.233 606.32 522.555 601.58 524.24C575.108 533.658 574.592 591.32 574.657 604.183Z" fill="#545454"/>
<path d="M629.48 450.861C632.085 444.488 637.676 440.823 640.576 438.922C642.027 437.971 643.369 437.257 644.729 436.7C655.229 432.411 665.713 432.707 667.584 432.846C672.119 433.186 683.319 434.024 691.617 441.217C695.634 444.7 698.845 449.559 703.527 476.958C710.055 515.168 704.756 511.253 709.906 526.74C712.631 534.935 716.878 544.338 712.385 550.344C710.935 552.283 708.864 552.84 704.639 554.741C688.861 561.844 674.713 560.62 666.118 559.769C656.659 558.832 651.878 558.296 649.37 554.95C645.364 549.609 649.487 542.822 650.207 531.074C650.723 522.64 648.807 515.957 644.974 502.589C636.059 471.518 624.487 463.07 629.48 450.861Z" fill="#787878"/>
<path d="M585.02 488.911L574.939 486.971C574.214 486.831 573.471 486.825 572.744 486.949L564.022 488.449C564.022 488.449 569.692 490.731 574.513 490.015C579.335 489.298 584.599 492.013 584.599 492.013L585.02 488.911Z" fill="#FEB3B2"/>
<path d="M651.782 425.784C650.086 423.22 652.624 418.292 653.628 416.341C653.662 416.273 653.707 416.185 653.802 416.012C655.344 413.165 655.738 412.777 656.474 412.284L657.497 411.653C657.497 411.653 657.555 411.63 657.618 411.608C658.274 411.374 660.512 411.306 660.964 411.403C662.412 411.712 663.955 417.611 663.513 425.955C663.574 426.273 663.63 426.595 663.687 426.917C663.914 428.235 664.097 429.526 664.236 430.787C664.369 431.995 666.083 431.968 667.294 431.891C672.214 431.578 674.621 431.995 674.831 432.729C675.223 434.103 669.388 438.593 662.183 439.604C652.511 439.676 644.646 438.647 645.49 437.122C645.866 436.446 653.358 434.486 655.466 432.544C657.395 430.767 657.238 428.931 657.398 427.618C656.402 427.67 653.076 427.739 651.782 425.784Z" fill="#FEB3B2"/>
<path d="M654.497 409.281C653.702 411.036 655.632 414.559 656.343 415.068C656.424 415.124 656.875 415.48 657.28 416.091C657.336 416.174 657.384 416.271 657.426 416.397C657.992 418.026 655.404 419.943 655.904 420.67C656.267 421.2 658.025 420.492 658.235 420.95C658.433 421.38 656.969 422.27 657.194 422.786C657.363 423.175 658.264 422.819 658.831 423.414C659.271 423.874 659.32 424.527 659.331 424.854C659.401 427.169 654.152 435.531 653.06 439.304C651.9 443.305 653.974 447.115 661.509 457.639C672.227 472.608 677.584 480.094 680.563 482.234C695.123 492.691 712.246 491.409 719.267 490.319C727.702 489.008 745.128 486.3 750.74 472.874C757.191 457.441 744.489 436.322 731.458 432.736C725.5 431.096 722.327 433.587 714.588 430.893C706.04 427.917 707.076 422.655 699.163 419.548C688.609 415.404 681.799 422.813 674.607 417.417C670.694 414.482 671.34 411.259 666.526 408.907C661.779 406.587 655.539 406.981 654.497 409.281Z" fill="#4B3E62"/>
<path d="M656.833 420.064C657.465 419.195 658.578 420.012 658.584 421.139C658.591 422.265 657.501 423.437 656.443 423.214C655.385 422.991 655.979 421.236 656.833 420.064Z" fill="#F9A8A7"/>
<path opacity="0.3" d="M674.283 548.67C671.499 543.126 678.32 535.757 673.864 527.308C670.081 520.131 663.206 521.739 660.047 515.159C656.23 507.214 664.532 501.276 664.233 489.188C663.877 474.737 651.45 460.272 644.134 461.541C639.4 462.361 638.792 469.425 635.464 477.156C638.41 483.619 641.853 491.718 644.971 502.591C648.806 515.959 650.722 522.642 650.204 531.076C649.484 542.824 645.361 549.611 649.367 554.953C651.875 558.296 656.656 558.834 666.115 559.769C674.713 560.62 688.858 561.846 704.637 554.743C706.634 553.844 708.129 553.171 709.349 552.506C684.699 556.212 676.489 553.067 674.283 548.67Z" fill="#545454"/>
<path d="M582.451 491.853C582.737 490.567 583.023 489.28 583.309 487.992C602.679 491.465 611.15 487.566 615.242 483.009C618.998 478.828 617.397 476.665 623.407 460.703C629.131 445.497 635.627 441.591 638.899 440.176C640.727 439.388 641.988 438.863 643.504 439.235C650.482 440.94 652.79 459.135 650.831 472.746C649.728 480.414 647.564 495.453 635.233 502.591C635.005 502.722 634.647 502.929 634.175 503.184C632.621 504.015 626.451 506.984 614.298 504.79C599.97 502.206 585.991 493.991 582.451 491.853Z" fill="#787878"/>
<path d="M672.142 653.271C695.515 653.271 714.464 645.534 714.464 635.991C714.464 626.447 695.515 618.71 672.142 618.71C648.768 618.71 629.82 626.447 629.82 635.991C629.82 645.534 648.768 653.271 672.142 653.271Z" fill="#333333"/>
<path d="M714.464 633.963C714.464 642.971 695.515 650.275 672.142 650.275C648.768 650.275 629.82 642.971 629.82 633.963C629.82 624.955 648.768 610.215 672.142 610.215C695.515 610.215 714.464 624.955 714.464 633.963Z" fill="#C7C7C9"/>
<path opacity="0.3" d="M714.464 633.963C714.464 624.955 695.515 610.215 672.142 610.215C661.349 610.215 651.507 613.36 644.031 617.631C643.509 618.728 643.263 619.818 643.362 620.852C643.849 625.921 652.11 629.036 656.855 630.064C668.798 632.652 674.633 625.506 684.48 625.779C690.568 625.948 699.006 629.007 709.013 641.967C712.478 639.604 714.464 636.873 714.464 633.963Z" fill="white"/>
<path d="M674.458 618.397C672.767 618.818 671.188 618.802 669.704 618.424C668.358 618.081 667.434 616.836 667.434 615.446V567.705H676.844V615.389C676.847 616.822 675.849 618.052 674.458 618.397Z" fill="white"/>
<path opacity="0.65" d="M674.458 618.397C672.767 618.818 671.188 618.802 669.704 618.424C668.358 618.081 667.434 616.836 667.434 615.446V567.705H676.844V615.389C676.847 616.822 675.849 618.052 674.458 618.397Z" fill="#A0A0A0"/>
<path d="M622.415 547.613L636.792 538.521C637.391 535.124 644.167 499.595 671.679 488.438C682.868 483.901 694.908 484.439 701.515 484.734C714.706 485.324 724.114 485.743 728.64 492.037C734.451 500.12 724.703 507.45 726.723 530.569C727.545 539.997 729.639 544.185 727.032 550.431C723.909 557.912 716.667 562.06 711.037 564.396C704.307 568.306 692.589 573.877 677.11 575.233C651.039 577.52 631.575 566.331 624.882 562.051C621.906 561.111 619.67 558.636 619.037 555.579C618.393 552.479 619.739 549.305 622.415 547.613Z" fill="#C7C7C9"/>
<path opacity="0.26" d="M629.026 554.088C629.558 550.891 638.463 553.54 646.89 547.28C659.484 537.92 652.947 522.068 663.902 506.858C673.956 492.9 694.195 485.798 700.479 491.114C708.843 498.192 688.374 524.665 700.479 541.747C706.359 550.046 715.319 549.645 715.366 554.511C715.438 562.202 693.141 571.068 671.983 570.679C649.238 570.266 628.182 559.163 629.026 554.088Z" fill="white"/>
<defs>
<linearGradient id="paint0_linear" x1="384.029" y1="344.669" x2="305.545" y2="29.5603" gradientUnits="userSpaceOnUse">
<stop stop-color="#FFC444"/>
<stop offset="0.9964" stop-color="#F36F56"/>
</linearGradient>
<linearGradient id="paint1_linear" x1="525.922" y1="437.482" x2="717.687" y2="173.936" gradientUnits="userSpaceOnUse">
<stop stop-color="#FFC444"/>
<stop offset="0.9964" stop-color="#F36F56"/>
</linearGradient>
<linearGradient id="paint2_linear" x1="238.77" y1="285.913" x2="706.204" y2="285.913" gradientUnits="userSpaceOnUse">
<stop stop-color="white"/>
<stop offset="0.9964" stop-color="#EBEFF2"/>
</linearGradient>
<linearGradient id="paint3_linear" x1="477.228" y1="-69.8955" x2="472.153" y2="571.003" gradientUnits="userSpaceOnUse">
<stop stop-color="#FF9085"/>
<stop offset="1" stop-color="#FB6FBB"/>
</linearGradient>
<linearGradient id="paint4_linear" x1="467.17" y1="587.073" x2="415.489" y2="451.558" gradientUnits="userSpaceOnUse">
<stop stop-color="#311944"/>
<stop offset="1" stop-color="#893976"/>
</linearGradient>
<linearGradient id="paint5_linear" x1="458.082" y1="590.21" x2="406.491" y2="454.931" gradientUnits="userSpaceOnUse">
<stop stop-color="#311944"/>
<stop offset="1" stop-color="#893976"/>
</linearGradient>
<linearGradient id="paint6_linear" x1="434.777" y1="591.274" x2="367.8" y2="464.839" gradientUnits="userSpaceOnUse">
<stop stop-color="#311944"/>
<stop offset="1" stop-color="#893976"/>
</linearGradient>
<linearGradient id="paint7_linear" x1="390.152" y1="295.85" x2="407.47" y2="257.571" gradientUnits="userSpaceOnUse">
<stop stop-color="#311944"/>
<stop offset="1" stop-color="#6B3976"/>
</linearGradient>
<linearGradient id="paint8_linear" x1="394.668" y1="298.197" x2="412.222" y2="259.397" gradientUnits="userSpaceOnUse">
<stop stop-color="#311944"/>
<stop offset="1" stop-color="#6B3976"/>
</linearGradient>
<linearGradient id="paint9_linear" x1="410.899" y1="275.291" x2="409.761" y2="282.282" gradientUnits="userSpaceOnUse">
<stop stop-color="#FFC444"/>
<stop offset="1" stop-color="#F36F56"/>
</linearGradient>
<linearGradient id="paint10_linear" x1="650.891" y1="215.676" x2="625.032" y2="301.503" gradientUnits="userSpaceOnUse">
<stop stop-color="#DAE3FE"/>
<stop offset="1" stop-color="#E9EFFD"/>
</linearGradient>
<linearGradient id="paint11_linear" x1="663.477" y1="230.426" x2="657.258" y2="250.829" gradientUnits="userSpaceOnUse">
<stop stop-color="#DAE3FE"/>
<stop offset="1" stop-color="#E9EFFD"/>
</linearGradient>
<linearGradient id="paint12_linear" x1="655.705" y1="230.608" x2="649.486" y2="251.011" gradientUnits="userSpaceOnUse">
<stop stop-color="#DAE3FE"/>
<stop offset="1" stop-color="#E9EFFD"/>
</linearGradient>
</defs>
</svg>
