<svg width="126" height="117" viewBox="0 0 126 117" fill="none" xmlns="http://www.w3.org/2000/svg">
<path d="M109.771 21.4492H98.6021L89.807 14.81C88.3343 13.7665 86.5714 13.2228 84.773 13.2574H76.5626C74.7661 13.2241 73.0048 13.7633 71.5286 14.7985L62.7335 21.4492H39.6849V20.9046C39.6864 20.5339 39.6154 20.1666 39.4761 19.8236C39.3367 19.4807 39.1317 19.1689 38.8728 18.9062C38.6139 18.6436 38.3062 18.4351 37.9674 18.2929C37.6286 18.1507 37.2653 18.0775 36.8984 18.0775H29.8003C29.4344 18.079 29.0724 18.1533 28.7349 18.2962C28.3974 18.4391 28.091 18.6478 27.8334 18.9103C27.5757 19.1729 27.3717 19.4841 27.233 19.8263C27.0944 20.1685 27.0238 20.5349 27.0253 20.9046V21.4492H24.1127C22.288 21.4492 20.538 22.1817 19.2477 23.4854C17.9574 24.7892 17.2325 26.5575 17.2325 28.4012V88.4899C17.2325 90.3337 17.9574 92.102 19.2477 93.4057C20.538 94.7095 22.288 95.4419 24.1127 95.4419H109.771C111.596 95.4419 113.346 94.7095 114.636 93.4057C115.926 92.102 116.651 90.3337 116.651 88.4899V28.3781C116.645 26.5383 115.918 24.776 114.628 23.4772C113.338 22.1785 111.592 21.4492 109.771 21.4492ZM42.5057 36.5119C42.5057 37.0592 42.3989 37.601 42.1913 38.1064C41.9837 38.6119 41.6794 39.0709 41.296 39.4573C40.9125 39.8437 40.4573 40.1499 39.9565 40.3583C39.4557 40.5666 38.9192 40.6731 38.3776 40.6716H28.3211C27.2282 40.6716 26.18 40.2337 25.4061 39.4539C24.6323 38.6742 24.196 37.6162 24.193 36.5119V32.8853C24.196 31.781 24.6323 30.723 25.4061 29.9433C26.18 29.1635 27.2282 28.7257 28.3211 28.7257H38.3776C39.4705 28.7257 40.5188 29.1635 41.2926 29.9433C42.0664 30.723 42.5027 31.781 42.5057 32.8853V36.5119ZM80.7022 83.6119C75.773 83.6165 70.9531 82.1437 66.8524 79.3799C62.7517 76.6161 59.5544 72.6855 57.6649 68.0852C55.7754 63.485 55.2787 58.4218 56.2375 53.5362C57.1964 48.6507 59.5678 44.1622 63.0517 40.6387C66.5356 37.1152 70.9754 34.7149 75.8096 33.7416C80.6438 32.7682 85.6551 33.2654 90.2096 35.1704C94.764 37.0754 98.657 40.3025 101.396 44.4435C104.135 48.5845 105.597 53.4533 105.597 58.434C105.594 65.1066 102.971 71.5054 98.3035 76.2259C93.6362 80.9463 87.3059 83.6027 80.7022 83.6119Z" fill="white" fill-opacity="0.78"/>
<path d="M80.8941 41.0931C77.4849 41.0864 74.1503 42.0911 71.3123 43.9801C68.4742 45.8691 66.2602 48.5575 64.9504 51.7051C63.6407 54.8527 63.2939 58.318 63.9542 61.6627C64.6144 65.0074 66.2518 68.0811 68.6594 70.4949C71.0669 72.9088 74.1364 74.5542 77.4793 75.2232C80.8223 75.8921 84.2886 75.5544 87.4395 74.2528C90.5905 72.9512 93.2847 70.7443 95.181 67.9111C97.0774 65.078 98.0908 61.746 98.093 58.3368C98.096 53.7703 96.2864 49.3894 93.0616 46.1562C89.8368 42.923 85.4606 41.102 80.8941 41.0931ZM89.6281 62.5188C88.8476 62.5188 88.0846 62.2874 87.4355 61.8537C86.7865 61.4201 86.2807 60.8037 85.982 60.0825C85.6833 59.3614 85.6051 58.5679 85.7574 57.8023C85.9097 57.0368 86.2856 56.3336 86.8375 55.7816C87.3894 55.2297 88.0926 54.8538 88.8582 54.7015C89.6237 54.5493 90.4173 54.6274 91.1384 54.9261C91.8596 55.2248 92.4759 55.7307 92.9096 56.3797C93.3432 57.0287 93.5747 57.7917 93.5747 58.5723C93.5762 59.0909 93.4751 59.6048 93.2773 60.0843C93.0795 60.5638 92.7888 60.9994 92.4221 61.3662C92.0553 61.733 91.6196 62.0236 91.1402 62.2214C90.6607 62.4192 90.1468 62.5203 89.6281 62.5188Z" fill="white" fill-opacity="0.78"/>
<line x1="124.297" y1="1.1013" x2="1.01839" y2="115.101" stroke="white" stroke-width="3"/>
</svg>
